<svg xmlns="http://www.w3.org/2000/svg" viewBox="0 0 492 808.34"><title>flow-chart1</title><g id="Layer_1_copy" data-name="Layer 1 copy"><rect id="sqare_2" data-name="sqare 2" x="287.18" y="728.3" width="204.32" height="27.99" style="fill:none;stroke:#3f3f3f"/><rect id="sqaure_shape" data-name="sqaure shape" x="367.96" y="50.93" width="123.54" height="604.86" style="fill:none;stroke:#3f3f3f"/><rect id="data_out" data-name="data out" x="60.05" y="728.3" width="203.37" height="27.99" style="fill:none;stroke:#3f3f3f"/><rect id="multi" x="165.07" y="359.39" width="84.43" height="43.25" style="fill:none;stroke:#3f3f3f"/><rect id="register" x="60.37" y="198.49" width="203.05" height="103.04" style="fill:none;stroke:#3f3f3f"/><rect id="incrementer" x="164.27" y="122.8" width="99.15" height="41.98" style="fill:none;stroke:#3f3f3f"/><rect id="address" x="60.37" y="52.52" width="203.05" height="39.75" style="fill:none;stroke:#3f3f3f"/><polygon id="barrel" points="247.58 526.36 142.41 526.36 160.15 475.16 263.42 475.16 247.58 526.36" style="fill:none;stroke:#3f3f3f"/><polygon id="alu" points="60.21 563.89 141.15 563.89 161.98 577.4 183.12 563.89 263.74 563.89 239.35 614.77 84.44 614.77 60.21 563.89" style="fill:none;stroke:#3f3f3f"/><polygon id="alu_bus" data-name="alu bus" points="179 614.77 179 663.59 0.5 663.59 0.5 59.84 22.36 59.84 22.36 59.84 36.3 59.84 36.3 52.52 58.79 72.56 36.3 92.28 36.3 84.01 22.36 84.01 22.36 238.72 36.3 238.72 36.3 230.13 57.79 250.17 36.3 269.88 36.3 261.62 22.36 261.62 22.36 635.65 153.34 635.65 153.34 614.77 179 614.77" style="fill:none;stroke:#3f3f3f"/><polygon id="a_bus" data-name="a bus" points="116.12 541.63 124.52 541.63 104 562.34 84.07 541.63 91.1 541.63 91.1 301.53 116.5 302.53 116.5 392.84 116.12 541.63" style="fill:none;stroke:#3f3f3f"/><polygon id="reg_b_arrow" data-name="reg b arrow" points="260.62 352.64 260.62 344.1 205.45 344.1 205.45 301.53 226.36 301.53 226.36 319.65 260.62 319.65 261 311.34 295.68 332.06 260.62 352.64" style="fill:none;stroke:#3f3f3f"/><polygon id="p_c" data-name="p c" points="124.67 136.17 117.39 136.17 117.39 198.49 91.73 198.49 91.73 136.17 83.18 136.17 103.93 93.86 124.67 136.17" style="fill:none;stroke:#3f3f3f"/><polygon id="add_arrow" data-name="add arrow" points="186.13 21.16 176.94 21.16 176.94 52.52 151.28 52.52 151.28 21.16 142.73 21.16 164.11 0.69 186.13 21.16" style="fill:none;stroke:#3f3f3f"/><polygon id="b_bus" data-name="b bus" points="186.76 695.55 186.76 714.73 196.43 714.73 173.62 726.55 150.81 714.73 159.04 714.73 159.04 676.47 298.27 676.47 298.27 443.57 217.6 443.57 217.6 455.34 224.04 455.34 205.82 473.9 187.6 455.34 193.52 455.34 193.52 422.8 298.27 422.8 298.27 311.48 318.54 311.48 318.54 695.55 186.76 695.55" style="fill:none;stroke:#3f3f3f"/><polygon id="barel_arrow_2" data-name="barel arrow 2" points="226.31 547.4 207.83 562.93 189.35 547.4 195.63 547.4 195.63 526.36 219.07 526.36 219.07 547.4 226.31 547.4" style="fill:none;stroke:#3f3f3f"/><polygon id="add_arrow_2" data-name="add arrow 2" points="229.84 111.67 212.42 122.8 195.95 111.67 201.97 111.67 201.97 92.28 222.88 92.28 222.88 111.67 229.84 111.67" style="fill:none;stroke:#3f3f3f"/><polygon id="pc_path_arrow" data-name="pc path arrow" points="326.57 61.75 326.57 230.13 287.96 230.13 287.86 237.24 264.3 218.57 288 200.34 287.86 207.71 305.03 207.71 305.03 152.91 263.42 152.91 263.42 135.68 305.03 135.68 305.03 82.95 287.86 82.95 287.86 91.28 264.3 72.6 288 53.34 287.86 61.75 326.57 61.75" style="fill:none;stroke:#3f3f3f"/><polygon id="top_arrow" data-name="top arrow" points="443.14 38 449.69 38 433.32 49.2 417.59 38 423.5 38 423.5 10.44 417.59 10.44 433.32 0.84 449.69 10.44 443.14 10.44 443.14 38" style="fill:none;stroke:#3f3f3f"/><polygon id="data_in_arrow_2" data-name="data in arrow 2" points="462.57 683.67 454.12 683.67 454.12 728.3 427.72 728.3 427.72 683.67 419.06 683.67 441 657.84 462.57 683.67" style="fill:none;stroke:#3f3f3f"/><polygon id="data_in_arrow_1" data-name="data in arrow 1" points="414.63 776.7 407.66 776.7 407.66 807.84 381.26 807.84 381.26 776.7 372.81 776.7 393.72 757.13 414.63 776.7" style="fill:none;stroke:#3f3f3f"/><polygon id="data_in_arrow_3" data-name="data in arrow 3" points="329.1 708.8 320.65 708.8 320.65 728.3 295.31 728.3 295.31 708.8 288.34 708.8 308.72 695.55 329.1 708.8" style="fill:none;stroke:#3f3f3f"/><polygon id="data_out_arrow" data-name="data out arrow" points="195.32 790.63 173.06 807.17 150.81 790.63 158.89 790.63 158.89 756.29 187.08 756.29 187.08 790.63 195.32 790.63" style="fill:none;stroke:#3f3f3f"/><polygon id="multi_new_arrow_1" data-name="multi new arrow 1" points="149.07 399.84 149.07 392.44 132.93 392.44 132.93 399.84 118.5 380.93 132.93 362.84 132.93 371.06 149.07 371.06 149.07 362.84 163.5 380.93 149.07 399.84" style="fill:none;stroke:#3f3f3f"/><polygon id="multi_new_arrow_2" data-name="multi new arrow 2" points="282.07 400.84 282.07 393.44 265.93 393.44 265.93 400.84 251.5 381.93 265.93 363.84 265.93 372.06 282.07 372.06 282.07 363.84 296.5 381.93 282.07 400.84" style="fill:none;stroke:#3f3f3f"/></g><g id="Layer_3" data-name="Layer 3"><path d="M416.61,308a1.45,1.45,0,0,1,0-1.89,1.1,1.1,0,0,1,.87-.38,1.15,1.15,0,0,1,.86.36,1.28,1.28,0,0,1,.35.91,1.48,1.48,0,0,1-.34,1,1.09,1.09,0,0,1-.87.4A1.14,1.14,0,0,1,416.61,308Zm-.09,1.94h1.9v9.45h-1.9Z" transform="translate(-24.5 -6.16)" style="fill:#333"/><path d="M427.94,310.86a4.54,4.54,0,0,1,.92,3.09v5.42H427v-5.14a3,3,0,0,0-.5-1.86,1.71,1.71,0,0,0-1.42-.63,2,2,0,0,0-1.65.73,3.23,3.23,0,0,0-.61,2.12v4.78H420.9v-9.45h1.8v1.22a3,3,0,0,1,1.18-1,3.66,3.66,0,0,1,1.61-.34A3.11,3.11,0,0,1,427.94,310.86Z" transform="translate(-24.5 -6.16)" style="fill:#333"/><path d="M431.85,319.19a4.57,4.57,0,0,1-1.5-.76l.72-1.68a4.5,4.5,0,0,0,1.31.68,4.73,4.73,0,0,0,1.51.25c1.13,0,1.7-.34,1.7-1a.7.7,0,0,0-.44-.69,6.59,6.59,0,0,0-1.38-.37,9.36,9.36,0,0,1-1.63-.41,2.34,2.34,0,0,1-1.55-2.4,2.65,2.65,0,0,1,1-2.15,3.91,3.91,0,0,1,2.6-.81,6.76,6.76,0,0,1,1.66.22,4.35,4.35,0,0,1,1.37.6l-.73,1.68a4,4,0,0,0-2.32-.71,2.3,2.3,0,0,0-1.26.29.89.89,0,0,0-.43.77.77.77,0,0,0,.46.75,6.29,6.29,0,0,0,1.43.42,10.75,10.75,0,0,1,1.59.4A2.62,2.62,0,0,1,437,315a2.47,2.47,0,0,1,.44,1.56,2.61,2.61,0,0,1-1,2.12,4.16,4.16,0,0,1-2.68.8A6.22,6.22,0,0,1,431.85,319.19Z" transform="translate(-24.5 -6.16)" style="fill:#333"/><path d="M443.93,318.85a2.18,2.18,0,0,1-.81.48,3.05,3.05,0,0,1-1,.16,2.63,2.63,0,0,1-2.06-.81,3.51,3.51,0,0,1-.72-2.38v-4.54H438V310h1.34v-2.16h1.89V310h2.16v1.77h-2.16v4.49a1.6,1.6,0,0,0,.29,1.05,1,1,0,0,0,.83.37,1.51,1.51,0,0,0,1.06-.39Z" transform="translate(-24.5 -6.16)" style="fill:#333"/><path d="M450.17,309.81v2.11a1.85,1.85,0,0,0-.44-.06,2.11,2.11,0,0,0-1.73.76,3.33,3.33,0,0,0-.62,2.16v4.59h-1.89v-9.45h1.8v1.38A3,3,0,0,1,450.17,309.81Z" transform="translate(-24.5 -6.16)" style="fill:#333"/><path d="M459.68,309.92v9.45h-1.8v-1.21a3.15,3.15,0,0,1-1.14,1,3.49,3.49,0,0,1-4-.7,4.63,4.63,0,0,1-.93-3.13v-5.39h1.89V315a3.07,3.07,0,0,0,.49,1.91,1.7,1.7,0,0,0,1.4.62,2,2,0,0,0,1.62-.73,3.34,3.34,0,0,0,.59-2.12v-4.77Z" transform="translate(-24.5 -6.16)" style="fill:#333"/><path d="M463.61,318.87a4.33,4.33,0,0,1-1.56-1.72,5.55,5.55,0,0,1-.56-2.51,5.43,5.43,0,0,1,.56-2.49,4.26,4.26,0,0,1,1.56-1.72,4.19,4.19,0,0,1,2.26-.62,3.84,3.84,0,0,1,2.1.57,3.46,3.46,0,0,1,1.35,1.63l-1.45,1a2.5,2.5,0,0,0-.87-1,2.19,2.19,0,0,0-1.15-.32,2.23,2.23,0,0,0-1.75.8,3.67,3.67,0,0,0,0,4.3,2.21,2.21,0,0,0,1.76.81,2.11,2.11,0,0,0,1.15-.33,2.54,2.54,0,0,0,.87-1l1.45,1a3.56,3.56,0,0,1-1.37,1.63,3.72,3.72,0,0,1-2.08.58A4.24,4.24,0,0,1,463.61,318.87Z" transform="translate(-24.5 -6.16)" style="fill:#333"/><path d="M475.92,318.85a2.18,2.18,0,0,1-.81.48,3,3,0,0,1-1,.16,2.62,2.62,0,0,1-2.06-.81,3.46,3.46,0,0,1-.73-2.38v-4.54H470V310h1.33v-2.16h1.89V310h2.17v1.77h-2.17v4.49a1.66,1.66,0,0,0,.29,1.05,1,1,0,0,0,.83.37,1.49,1.49,0,0,0,1.06-.39Z" transform="translate(-24.5 -6.16)" style="fill:#333"/><path d="M477.57,308a1.48,1.48,0,0,1,0-1.89,1.12,1.12,0,0,1,.87-.38,1.15,1.15,0,0,1,.86.36,1.28,1.28,0,0,1,.35.91,1.43,1.43,0,0,1-.34,1,1.09,1.09,0,0,1-.87.4A1.15,1.15,0,0,1,477.57,308Zm-.09,1.94h1.9v9.45h-1.9Z" transform="translate(-24.5 -6.16)" style="fill:#333"/><path d="M483.28,318.87a4.19,4.19,0,0,1-1.53-1.72,5.55,5.55,0,0,1-.56-2.51,5.43,5.43,0,0,1,.56-2.49,4.19,4.19,0,0,1,1.53-1.72,4.28,4.28,0,0,1,4.44,0,4.22,4.22,0,0,1,1.54,1.72,5.43,5.43,0,0,1,.55,2.49,5.54,5.54,0,0,1-.55,2.51,4.22,4.22,0,0,1-1.54,1.72,4.28,4.28,0,0,1-4.44,0Zm3.94-2.09a3.71,3.71,0,0,0,0-4.28,2.16,2.16,0,0,0-1.73-.81,2.12,2.12,0,0,0-1.71.81,3.71,3.71,0,0,0,0,4.28,2.13,2.13,0,0,0,1.71.82A2.16,2.16,0,0,0,487.22,316.78Z" transform="translate(-24.5 -6.16)" style="fill:#333"/><path d="M498.67,310.86a4.54,4.54,0,0,1,.92,3.09v5.42H497.7v-5.14a3,3,0,0,0-.5-1.86,1.71,1.71,0,0,0-1.42-.63,2,2,0,0,0-1.65.73,3.23,3.23,0,0,0-.61,2.12v4.78h-1.89v-9.45h1.8v1.22a2.9,2.9,0,0,1,1.18-1,3.61,3.61,0,0,1,1.6-.34A3.13,3.13,0,0,1,498.67,310.86Z" transform="translate(-24.5 -6.16)" style="fill:#333"/><path d="M438,339.05v11.87h-1.92v-1.1a3.14,3.14,0,0,1-1.22.91,4.23,4.23,0,0,1-1.61.3,4.56,4.56,0,0,1-2.22-.54,3.89,3.89,0,0,1-1.54-1.55,5,5,0,0,1,0-4.58,4,4,0,0,1,1.54-1.54,4.56,4.56,0,0,1,2.22-.54,4.11,4.11,0,0,1,1.55.29,3.12,3.12,0,0,1,1.2.86v-4.38ZM434.78,349a2.42,2.42,0,0,0,.92-.93,3.18,3.18,0,0,0,0-2.82,2.38,2.38,0,0,0-.92-.94,2.62,2.62,0,0,0-1.29-.32,2.69,2.69,0,0,0-1.3.32,2.35,2.35,0,0,0-.91.94,3.09,3.09,0,0,0,0,2.82,2.39,2.39,0,0,0,.91.93,2.59,2.59,0,0,0,1.3.33A2.53,2.53,0,0,0,434.78,349Z" transform="translate(-24.5 -6.16)" style="fill:#333"/><path d="M448.62,347.29h-6.7a2.28,2.28,0,0,0,.92,1.49,3,3,0,0,0,1.85.56,3.11,3.11,0,0,0,2.32-.93l1.07,1.23a3.52,3.52,0,0,1-1.46,1,5.34,5.34,0,0,1-2,.35,5.21,5.21,0,0,1-2.48-.56,4,4,0,0,1-1.66-1.56,4.71,4.71,0,0,1,0-4.51,4,4,0,0,1,1.57-1.56,4.67,4.67,0,0,1,2.28-.56,4.47,4.47,0,0,1,2.23.55,3.93,3.93,0,0,1,1.53,1.55,4.71,4.71,0,0,1,.56,2.32A5.36,5.36,0,0,1,448.62,347.29Zm-5.91-2.84a2.42,2.42,0,0,0-.81,1.51h4.85a2.29,2.29,0,0,0-.78-1.5,2.36,2.36,0,0,0-1.63-.58A2.44,2.44,0,0,0,442.71,344.45Z" transform="translate(-24.5 -6.16)" style="fill:#333"/><path d="M452.11,350.47a4.13,4.13,0,0,1-1.65-1.56,4.62,4.62,0,0,1,0-4.52,4.22,4.22,0,0,1,1.64-1.55,5.06,5.06,0,0,1,2.4-.56,4.59,4.59,0,0,1,2.21.51,3.28,3.28,0,0,1,1.43,1.47l-1.53.9a2.52,2.52,0,0,0-.92-.89,2.49,2.49,0,0,0-1.21-.29,2.55,2.55,0,0,0-1.86.72,2.63,2.63,0,0,0-.73,1.95,2.59,2.59,0,0,0,.73,1.94,2.68,2.68,0,0,0,3.07.43,2.42,2.42,0,0,0,.92-.88l1.53.89a3.43,3.43,0,0,1-1.44,1.48,4.5,4.5,0,0,1-2.2.52A5,5,0,0,1,452.11,350.47Z" transform="translate(-24.5 -6.16)" style="fill:#333"/><path d="M461.25,350.47a4,4,0,0,1-1.63-1.56,4.69,4.69,0,0,1,0-4.52,4.06,4.06,0,0,1,1.63-1.55,4.86,4.86,0,0,1,2.33-.56,5,5,0,0,1,2.36.56,4.1,4.1,0,0,1,1.62,1.55,4.69,4.69,0,0,1,0,4.52,4.05,4.05,0,0,1-1.62,1.56,4.84,4.84,0,0,1-2.36.56A4.75,4.75,0,0,1,461.25,350.47Zm4.16-1.89a3,3,0,0,0,0-3.87,2.45,2.45,0,0,0-1.83-.73,2.4,2.4,0,0,0-1.81.73,3,3,0,0,0,0,3.87,2.41,2.41,0,0,0,1.81.74A2.46,2.46,0,0,0,465.41,348.58Z" transform="translate(-24.5 -6.16)" style="fill:#333"/><path d="M478.43,339.05v11.87h-1.92v-1.1a3.14,3.14,0,0,1-1.22.91,4.2,4.2,0,0,1-1.61.3,4.56,4.56,0,0,1-2.22-.54,3.89,3.89,0,0,1-1.54-1.55,5,5,0,0,1,0-4.58,4,4,0,0,1,1.54-1.54,4.56,4.56,0,0,1,2.22-.54,4.08,4.08,0,0,1,1.55.29,3.12,3.12,0,0,1,1.2.86v-4.38ZM475.22,349a2.46,2.46,0,0,0,.91-.93,3.18,3.18,0,0,0,0-2.82,2.42,2.42,0,0,0-.91-.94,2.8,2.8,0,0,0-2.6,0,2.42,2.42,0,0,0-.91.94,3.18,3.18,0,0,0,0,2.82,2.46,2.46,0,0,0,.91.93,2.73,2.73,0,0,0,2.6,0Z" transform="translate(-24.5 -6.16)" style="fill:#333"/><path d="M489.06,347.29h-6.71a2.32,2.32,0,0,0,.92,1.49,3,3,0,0,0,1.85.56,3.11,3.11,0,0,0,2.32-.93l1.07,1.23a3.55,3.55,0,0,1-1.45,1,5.43,5.43,0,0,1-2,.35,5.21,5.21,0,0,1-2.48-.56,4,4,0,0,1-1.65-1.56,4.38,4.38,0,0,1-.59-2.26,4.48,4.48,0,0,1,.57-2.25,4,4,0,0,1,1.58-1.56,4.63,4.63,0,0,1,2.27-.56,4.47,4.47,0,0,1,2.23.55,4,4,0,0,1,1.54,1.55,4.82,4.82,0,0,1,.55,2.32C489.09,346.83,489.08,347,489.06,347.29Zm-5.92-2.84a2.36,2.36,0,0,0-.8,1.51h4.84a2.29,2.29,0,0,0-.78-1.5,2.36,2.36,0,0,0-1.63-.58A2.44,2.44,0,0,0,483.14,344.45Z" transform="translate(-24.5 -6.16)" style="fill:#333"/><path d="M431.81,384a4,4,0,0,1-1.65-1.56,4.62,4.62,0,0,1,0-4.52,4.09,4.09,0,0,1,1.64-1.55,5,5,0,0,1,2.39-.56,4.66,4.66,0,0,1,2.22.51,3.33,3.33,0,0,1,1.43,1.47l-1.54.9a2.39,2.39,0,0,0-2.12-1.18,2.55,2.55,0,0,0-1.86.72,2.94,2.94,0,0,0,0,3.89,2.52,2.52,0,0,0,1.87.73,2.46,2.46,0,0,0,1.2-.3,2.35,2.35,0,0,0,.92-.88l1.54.89a3.4,3.4,0,0,1-1.45,1.48,4.47,4.47,0,0,1-2.2.52A4.92,4.92,0,0,1,431.81,384Z" transform="translate(-24.5 -6.16)" style="fill:#333"/><path d="M440.94,384a4.05,4.05,0,0,1-1.62-1.56,4.69,4.69,0,0,1,0-4.52,4.1,4.1,0,0,1,1.62-1.55,5.19,5.19,0,0,1,4.69,0,4.06,4.06,0,0,1,1.63,1.55,4.69,4.69,0,0,1,0,4.52,4,4,0,0,1-1.63,1.56,5.19,5.19,0,0,1-4.69,0Zm4.16-1.89a3,3,0,0,0,0-3.87,2.63,2.63,0,0,0-3.64,0,3,3,0,0,0,0,3.87,2.61,2.61,0,0,0,3.64,0Z" transform="translate(-24.5 -6.16)" style="fill:#333"/><path d="M457.2,376.7a3.74,3.74,0,0,1,1,2.8v4.9h-2v-4.64a2.41,2.41,0,0,0-.52-1.69,2,2,0,0,0-1.51-.57,2.33,2.33,0,0,0-1.74.67,2.63,2.63,0,0,0-.64,1.91v4.32h-2v-8.54h1.9V377a3.27,3.27,0,0,1,1.25-.9,4.56,4.56,0,0,1,1.7-.3A3.57,3.57,0,0,1,457.2,376.7Z" transform="translate(-24.5 -6.16)" style="fill:#333"/><path d="M465.86,383.94a2.48,2.48,0,0,1-.86.43,4.11,4.11,0,0,1-1.06.14,3,3,0,0,1-2.18-.73,2.85,2.85,0,0,1-.77-2.15v-4.11h-1.41v-1.6H461V374h2v1.95h2.29v1.6H463v4.06a1.34,1.34,0,0,0,.31,1,1.16,1.16,0,0,0,.88.32,1.74,1.74,0,0,0,1.12-.35Z" transform="translate(-24.5 -6.16)" style="fill:#333"/><path d="M472.45,375.76v1.9a2.71,2.71,0,0,0-.47,0,2.4,2.4,0,0,0-1.82.68,2.69,2.69,0,0,0-.66,2v4.14h-2v-8.54h1.91v1.24A3.34,3.34,0,0,1,472.45,375.76Z" transform="translate(-24.5 -6.16)" style="fill:#333"/><path d="M475.57,384a4,4,0,0,1-1.63-1.56,4.69,4.69,0,0,1,0-4.52,4.06,4.06,0,0,1,1.63-1.55,4.86,4.86,0,0,1,2.33-.56,5,5,0,0,1,2.36.56,4.1,4.1,0,0,1,1.62,1.55,4.69,4.69,0,0,1,0,4.52,4.05,4.05,0,0,1-1.62,1.56,4.84,4.84,0,0,1-2.36.56A4.75,4.75,0,0,1,475.57,384Zm4.16-1.89a3,3,0,0,0,0-3.87,2.45,2.45,0,0,0-1.83-.73,2.4,2.4,0,0,0-1.81.73,3,3,0,0,0,0,3.87,2.41,2.41,0,0,0,1.81.74A2.46,2.46,0,0,0,479.73,382.06Z" transform="translate(-24.5 -6.16)" style="fill:#333"/><path d="M484.38,372.53h2V384.4h-2Z" transform="translate(-24.5 -6.16)" style="fill:#333"/><path d="M375.8,27.94a4,4,0,0,1-1.54-1.53,4.36,4.36,0,0,1-.56-2.22,4.3,4.3,0,0,1,.56-2.21,4,4,0,0,1,1.54-1.52,4.57,4.57,0,0,1,2.23-.54,4.37,4.37,0,0,1,2,.42,3.3,3.3,0,0,1,1.35,1.24l-.85.58a2.65,2.65,0,0,0-1.06-.94,3.22,3.22,0,0,0-1.39-.31,3.33,3.33,0,0,0-1.64.41,2.87,2.87,0,0,0-1.13,1.16,3.79,3.79,0,0,0,0,3.43,2.84,2.84,0,0,0,1.13,1.15,3.43,3.43,0,0,0,3,.11,2.56,2.56,0,0,0,1.06-.93l.85.58A3.32,3.32,0,0,1,380,28.06a4.38,4.38,0,0,1-1.94.42A4.57,4.57,0,0,1,375.8,27.94Z" transform="translate(-24.5 -6.16)" style="fill:#333"/><path d="M384.66,27.93a4,4,0,0,1-1.54-1.53,4.64,4.64,0,0,1,0-4.42,4,4,0,0,1,1.54-1.52,4.71,4.71,0,0,1,4.38,0A4,4,0,0,1,390.57,22a4.72,4.72,0,0,1,0,4.42A4,4,0,0,1,389,27.93a4.64,4.64,0,0,1-4.38,0Zm3.8-.87a2.83,2.83,0,0,0,1.11-1.16,3.86,3.86,0,0,0,0-3.42,2.89,2.89,0,0,0-1.11-1.16,3.37,3.37,0,0,0-3.22,0,2.91,2.91,0,0,0-1.12,1.16,3.77,3.77,0,0,0,0,3.42,2.85,2.85,0,0,0,1.12,1.16,3.37,3.37,0,0,0,3.22,0Z" transform="translate(-24.5 -6.16)" style="fill:#333"/><path d="M400.25,20.84a3.61,3.61,0,0,1,.93,2.68V28.4h-1.13V23.63a2.79,2.79,0,0,0-.66-2,2.46,2.46,0,0,0-1.87-.69,2.86,2.86,0,0,0-2.15.81,3,3,0,0,0-.79,2.23V28.4h-1.14V20h1.09v1.56a3.18,3.18,0,0,1,1.29-1.2,4.11,4.11,0,0,1,1.91-.42A3.47,3.47,0,0,1,400.25,20.84Z" transform="translate(-24.5 -6.16)" style="fill:#333"/><path d="M408.7,27.89a2.08,2.08,0,0,1-.79.44,3.19,3.19,0,0,1-1,.15A2.23,2.23,0,0,1,404.46,26V20.94H403V20h1.5V18.14h1.14V20h2.56v1H405.6v5a1.54,1.54,0,0,0,.38,1.14,1.43,1.43,0,0,0,1.08.39,2,2,0,0,0,.68-.11,1.64,1.64,0,0,0,.56-.32Z" transform="translate(-24.5 -6.16)" style="fill:#333"/><path d="M413.05,20.35a4,4,0,0,1,2-.43V21h-.27a2.69,2.69,0,0,0-2.08.81,3.23,3.23,0,0,0-.76,2.29V28.4h-1.13V20h1.09v1.65A2.74,2.74,0,0,1,413.05,20.35Z" transform="translate(-24.5 -6.16)" style="fill:#333"/><path d="M418.22,27.93a4,4,0,0,1-1.53-1.53,4.64,4.64,0,0,1,0-4.42,4,4,0,0,1,1.53-1.52,4.73,4.73,0,0,1,4.39,0A4,4,0,0,1,424.14,22a4.72,4.72,0,0,1,0,4.42,4,4,0,0,1-1.53,1.53,4.66,4.66,0,0,1-4.39,0Zm3.8-.87a2.79,2.79,0,0,0,1.12-1.16,3.86,3.86,0,0,0,0-3.42A2.85,2.85,0,0,0,422,21.32a3.35,3.35,0,0,0-3.21,0,2.85,2.85,0,0,0-1.12,1.16,3.77,3.77,0,0,0,0,3.42,2.79,2.79,0,0,0,1.12,1.16,3.35,3.35,0,0,0,3.21,0Z" transform="translate(-24.5 -6.16)" style="fill:#333"/><path d="M427,16.53h1.13V28.4H427Z" transform="translate(-24.5 -6.16)" style="fill:#333"/><path d="M360.25,745.38h4.29a6.21,6.21,0,0,1,2.78.61,4.45,4.45,0,0,1,1.89,1.72,5.2,5.2,0,0,1,0,5.14,4.47,4.47,0,0,1-1.89,1.73,6.21,6.21,0,0,1-2.78.6h-4.29Zm4.2,8.26a4.12,4.12,0,0,0,1.9-.41,2.88,2.88,0,0,0,1.26-1.18,3.47,3.47,0,0,0,.44-1.77,3.52,3.52,0,0,0-.44-1.77,2.86,2.86,0,0,0-1.26-1.17,4.12,4.12,0,0,0-1.9-.42h-2.38v6.72Z" transform="translate(-24.5 -6.16)" style="fill:#333"/><path d="M377,748.42a3,3,0,0,1,.88,2.38v4.38h-1.66v-.91a2,2,0,0,1-.91.75,3.5,3.5,0,0,1-1.44.26,3.54,3.54,0,0,1-1.47-.28,2.34,2.34,0,0,1-1-.8,2,2,0,0,1-.34-1.16,2,2,0,0,1,.75-1.62,3.74,3.74,0,0,1,2.35-.6h1.94v-.12a1.54,1.54,0,0,0-.47-1.2,2,2,0,0,0-1.4-.42,4,4,0,0,0-1.23.2,3,3,0,0,0-1,.54l-.69-1.27a4.22,4.22,0,0,1,1.41-.69,6.32,6.32,0,0,1,1.75-.24A3.62,3.62,0,0,1,377,748.42Zm-1.59,5.29a1.65,1.65,0,0,0,.72-.86V752h-1.81c-1,0-1.51.33-1.51,1a.88.88,0,0,0,.38.76,1.7,1.7,0,0,0,1,.28A2.29,2.29,0,0,0,375.44,753.71Z" transform="translate(-24.5 -6.16)" style="fill:#333"/><path d="M384.64,754.78a2,2,0,0,1-.75.38,3.48,3.48,0,0,1-.93.12,2.62,2.62,0,0,1-1.9-.64,2.49,2.49,0,0,1-.68-1.88v-3.6h-1.23v-1.4h1.23v-1.7h1.75v1.7h2v1.4h-2v3.56a1.17,1.17,0,0,0,.27.83,1,1,0,0,0,.77.29,1.51,1.51,0,0,0,1-.31Z" transform="translate(-24.5 -6.16)" style="fill:#333"/><path d="M391.47,748.42a3,3,0,0,1,.87,2.38v4.38h-1.65v-.91a2,2,0,0,1-.92.75,3.42,3.42,0,0,1-1.43.26,3.54,3.54,0,0,1-1.47-.28,2.37,2.37,0,0,1-1-.8,2.1,2.1,0,0,1-.34-1.16,2,2,0,0,1,.75-1.62,3.77,3.77,0,0,1,2.36-.6h1.93v-.12a1.5,1.5,0,0,0-.47-1.2,2,2,0,0,0-1.39-.42,4.07,4.07,0,0,0-1.24.2,3,3,0,0,0-1,.54l-.68-1.27a4.22,4.22,0,0,1,1.41-.69,6.22,6.22,0,0,1,1.75-.24A3.66,3.66,0,0,1,391.47,748.42Zm-1.6,5.29a1.65,1.65,0,0,0,.72-.86V752h-1.8c-1,0-1.52.33-1.52,1a.91.91,0,0,0,.38.76,1.7,1.7,0,0,0,1.05.28A2.26,2.26,0,0,0,389.87,753.71Z" transform="translate(-24.5 -6.16)" style="fill:#333"/><path d="M398.53,746.17a1,1,0,0,1,0-1.49,1.12,1.12,0,0,1,.8-.3,1.18,1.18,0,0,1,.8.28.93.93,0,0,1,.32.72,1.06,1.06,0,0,1-.32.78,1.17,1.17,0,0,1-1.6,0Zm-.08,1.54h1.75v7.47h-1.75Z" transform="translate(-24.5 -6.16)" style="fill:#333"/><path d="M409,748.45a3.26,3.26,0,0,1,.85,2.45v4.28H408.1v-4.06a2.07,2.07,0,0,0-.46-1.47,1.7,1.7,0,0,0-1.31-.5,2,2,0,0,0-1.53.58,2.34,2.34,0,0,0-.56,1.67v3.78h-1.75v-7.47h1.67v1a2.79,2.79,0,0,1,1.09-.78,3.86,3.86,0,0,1,1.48-.27A3.12,3.12,0,0,1,409,748.45Z" transform="translate(-24.5 -6.16)" style="fill:#333"/><path d="M422.52,755.18l-2-2.87-.38,0h-2.21v2.85h-1.82v-9.8h4a5.43,5.43,0,0,1,2.22.42,3.23,3.23,0,0,1,1.45,1.21,3.63,3.63,0,0,1,0,3.76,3.17,3.17,0,0,1-1.55,1.19l2.26,3.22Zm-.65-7.75a2.79,2.79,0,0,0-1.81-.51h-2.13v3.91h2.13a2.79,2.79,0,0,0,1.81-.51,1.77,1.77,0,0,0,.61-1.45A1.75,1.75,0,0,0,421.87,747.43Z" transform="translate(-24.5 -6.16)" style="fill:#333"/><path d="M433.18,752h-5.87a2,2,0,0,0,.81,1.3,2.57,2.57,0,0,0,1.61.49,2.71,2.71,0,0,0,2-.81l.94,1.07a3.09,3.09,0,0,1-1.27.91,4.54,4.54,0,0,1-1.74.31,4.6,4.6,0,0,1-2.17-.49,3.59,3.59,0,0,1-1.45-1.36,4.11,4.11,0,0,1,0-3.95,3.56,3.56,0,0,1,1.38-1.37,4.1,4.1,0,0,1,2-.49,4,4,0,0,1,1.95.49,3.41,3.41,0,0,1,1.34,1.35,4.18,4.18,0,0,1,.49,2C433.21,751.61,433.2,751.78,433.18,752ZM428,749.52a2.09,2.09,0,0,0-.7,1.32h4.24a2,2,0,0,0-.69-1.31,2,2,0,0,0-1.42-.51A2.15,2.15,0,0,0,428,749.52Z" transform="translate(-24.5 -6.16)" style="fill:#333"/><path d="M442.31,747.71v6.34q0,3.94-4,4a7.18,7.18,0,0,1-2-.28,4.28,4.28,0,0,1-1.6-.79l.79-1.31a3.73,3.73,0,0,0,1.24.65,4.93,4.93,0,0,0,1.52.24A2.46,2.46,0,0,0,440,756a2.24,2.24,0,0,0,.58-1.7v-.4a2.91,2.91,0,0,1-1.1.75,4.18,4.18,0,0,1-3.33-.21,3.36,3.36,0,0,1-1.36-1.28,3.6,3.6,0,0,1-.5-1.89,3.54,3.54,0,0,1,.5-1.88,3.33,3.33,0,0,1,1.36-1.27,4.06,4.06,0,0,1,1.92-.45,3.94,3.94,0,0,1,1.48.27,2.8,2.8,0,0,1,1.11.81v-1ZM440,752.77a2,2,0,0,0,.63-1.55,2,2,0,0,0-.63-1.52,2.57,2.57,0,0,0-3.28,0,2,2,0,0,0-.64,1.52,2,2,0,0,0,.64,1.55,2.57,2.57,0,0,0,3.28,0Z" transform="translate(-24.5 -6.16)" style="fill:#333"/><path d="M444.69,746.17a1,1,0,0,1,0-1.49,1.11,1.11,0,0,1,.79-.3,1.15,1.15,0,0,1,.8.28.9.9,0,0,1,.32.72,1.06,1.06,0,0,1-.31.78,1.1,1.1,0,0,1-.81.32A1.08,1.08,0,0,1,444.69,746.17Zm-.09,1.54h1.75v7.47H444.6Z" transform="translate(-24.5 -6.16)" style="fill:#333"/><path d="M449.18,755a4.64,4.64,0,0,1-1.39-.6l.68-1.33a4,4,0,0,0,1.21.54,4.82,4.82,0,0,0,1.39.2c1.05,0,1.57-.27,1.57-.82a.56.56,0,0,0-.4-.55,6.93,6.93,0,0,0-1.28-.29,11.69,11.69,0,0,1-1.51-.32,2.32,2.32,0,0,1-1-.64A1.76,1.76,0,0,1,448,750a2,2,0,0,1,.89-1.7,4.07,4.07,0,0,1,2.4-.64,6.81,6.81,0,0,1,1.54.18,4.37,4.37,0,0,1,1.26.47l-.67,1.33a4.11,4.11,0,0,0-2.15-.56,2.37,2.37,0,0,0-1.16.23.68.68,0,0,0-.4.61.6.6,0,0,0,.42.59,6.5,6.5,0,0,0,1.33.33,12.05,12.05,0,0,1,1.47.32,2.35,2.35,0,0,1,1,.62,1.7,1.7,0,0,1,.42,1.23,2,2,0,0,1-.91,1.68,4.32,4.32,0,0,1-2.48.63A6.64,6.64,0,0,1,449.18,755Z" transform="translate(-24.5 -6.16)" style="fill:#333"/><path d="M460.35,754.78a2,2,0,0,1-.75.38,3.48,3.48,0,0,1-.93.12,2.63,2.63,0,0,1-1.9-.64,2.48,2.48,0,0,1-.67-1.88v-3.6h-1.24v-1.4h1.24v-1.7h1.75v1.7h2v1.4h-2v3.56a1.17,1.17,0,0,0,.26.83,1,1,0,0,0,.77.29,1.51,1.51,0,0,0,1-.31Z" transform="translate(-24.5 -6.16)" style="fill:#333"/><path d="M468.54,752h-5.86a2,2,0,0,0,.8,1.3,2.6,2.6,0,0,0,1.62.49,2.73,2.73,0,0,0,2-.81l.94,1.07a3.19,3.19,0,0,1-1.28.91,5,5,0,0,1-3.9-.18,3.53,3.53,0,0,1-1.45-1.36,4.15,4.15,0,0,1,0-3.95,3.56,3.56,0,0,1,1.38-1.37,4.1,4.1,0,0,1,2-.49,3.92,3.92,0,0,1,1.95.49,3.44,3.44,0,0,1,1.35,1.35,4.17,4.17,0,0,1,.48,2C468.57,751.61,468.56,751.78,468.54,752Zm-5.17-2.49a2.1,2.1,0,0,0-.71,1.32h4.24a2,2,0,0,0-.68-1.31,2.09,2.09,0,0,0-1.43-.51A2.12,2.12,0,0,0,463.37,749.52Z" transform="translate(-24.5 -6.16)" style="fill:#333"/><path d="M474.58,747.62v1.67a2.1,2.1,0,0,0-.41,0,2.16,2.16,0,0,0-1.6.59,2.4,2.4,0,0,0-.57,1.72v3.62h-1.75v-7.47h1.67v1.09A2.92,2.92,0,0,1,474.58,747.62Z" transform="translate(-24.5 -6.16)" style="fill:#333"/><path d="M126.89,743.8h4.28a6.22,6.22,0,0,1,2.79.6,4.52,4.52,0,0,1,1.89,1.73,5.24,5.24,0,0,1,0,5.13A4.52,4.52,0,0,1,134,753a6.22,6.22,0,0,1-2.79.61h-4.28Zm4.2,8.26a4.12,4.12,0,0,0,1.9-.42,3,3,0,0,0,1.26-1.17,3.8,3.8,0,0,0,0-3.55,3,3,0,0,0-1.26-1.17,4.12,4.12,0,0,0-1.9-.41h-2.38v6.72Z" transform="translate(-24.5 -6.16)" style="fill:#333"/><path d="M143.67,746.83a3,3,0,0,1,.87,2.38v4.39h-1.65v-.91a2,2,0,0,1-.92.74,3.42,3.42,0,0,1-1.43.26,3.54,3.54,0,0,1-1.47-.28,2.21,2.21,0,0,1-1-.8,2,2,0,0,1-.35-1.16,2,2,0,0,1,.75-1.61,3.71,3.71,0,0,1,2.36-.61h1.93v-.11a1.51,1.51,0,0,0-.47-1.21,2,2,0,0,0-1.39-.42,4.07,4.07,0,0,0-1.24.2,3.15,3.15,0,0,0-1,.54L138,747a4.22,4.22,0,0,1,1.41-.69,6.61,6.61,0,0,1,1.75-.23A3.65,3.65,0,0,1,143.67,746.83Zm-1.6,5.29a1.65,1.65,0,0,0,.72-.86v-.87H141c-1,0-1.52.33-1.52,1a.91.91,0,0,0,.38.76,1.7,1.7,0,0,0,1.05.28A2.26,2.26,0,0,0,142.07,752.12Z" transform="translate(-24.5 -6.16)" style="fill:#333"/><path d="M151.28,753.19a2.21,2.21,0,0,1-.75.38,3.59,3.59,0,0,1-.93.12,2.64,2.64,0,0,1-1.91-.64,2.47,2.47,0,0,1-.67-1.88v-3.59h-1.23v-1.4H147v-1.71h1.75v1.71h2v1.4h-2v3.55a1.15,1.15,0,0,0,.27.83,1,1,0,0,0,.77.29,1.53,1.53,0,0,0,1-.31Z" transform="translate(-24.5 -6.16)" style="fill:#333"/><path d="M158.1,746.83a3.05,3.05,0,0,1,.88,2.38v4.39h-1.66v-.91a2,2,0,0,1-.91.74,3.5,3.5,0,0,1-1.44.26,3.54,3.54,0,0,1-1.47-.28,2.27,2.27,0,0,1-1-.8,2,2,0,0,1-.34-1.16,2,2,0,0,1,.75-1.61,3.65,3.65,0,0,1,2.35-.61h1.94v-.11a1.54,1.54,0,0,0-.47-1.21,2.05,2.05,0,0,0-1.4-.42,4,4,0,0,0-1.23.2,3,3,0,0,0-1,.54l-.69-1.27a4.22,4.22,0,0,1,1.41-.69,6.72,6.72,0,0,1,1.75-.23A3.62,3.62,0,0,1,158.1,746.83Zm-1.59,5.29a1.65,1.65,0,0,0,.72-.86v-.87h-1.81c-1,0-1.51.33-1.51,1a.88.88,0,0,0,.38.76,1.7,1.7,0,0,0,1.05.28A2.32,2.32,0,0,0,156.51,752.12Z" transform="translate(-24.5 -6.16)" style="fill:#333"/><path d="M166.4,753.2a3.51,3.51,0,0,1-1.42-1.36,4,4,0,0,1,0-4,3.49,3.49,0,0,1,1.42-1.35,4.16,4.16,0,0,1,2-.49,4.24,4.24,0,0,1,2.06.49,3.55,3.55,0,0,1,1.42,1.35,4.1,4.1,0,0,1,0,4,3.57,3.57,0,0,1-1.42,1.36,4.24,4.24,0,0,1-2.06.49A4.16,4.16,0,0,1,166.4,753.2Zm3.64-1.65a2.31,2.31,0,0,0,.63-1.69,2.33,2.33,0,0,0-.63-1.7,2.15,2.15,0,0,0-1.6-.64,2.13,2.13,0,0,0-1.59.64,2.37,2.37,0,0,0-.62,1.7,2.35,2.35,0,0,0,.62,1.69,2.13,2.13,0,0,0,1.59.65A2.16,2.16,0,0,0,170,751.55Z" transform="translate(-24.5 -6.16)" style="fill:#333"/><path d="M181.35,746.12v7.48h-1.67v-1a2.73,2.73,0,0,1-1.05.78,3.4,3.4,0,0,1-1.36.27,3.21,3.21,0,0,1-2.35-.83,3.26,3.26,0,0,1-.87-2.47v-4.27h1.75v4a2.2,2.2,0,0,0,.46,1.51,1.65,1.65,0,0,0,1.29.49,2,2,0,0,0,1.5-.58,2.35,2.35,0,0,0,.55-1.67v-3.78Z" transform="translate(-24.5 -6.16)" style="fill:#333"/><path d="M188.14,753.19a2.21,2.21,0,0,1-.75.38,3.59,3.59,0,0,1-.93.12,2.66,2.66,0,0,1-1.91-.64,2.51,2.51,0,0,1-.67-1.88v-3.59h-1.23v-1.4h1.23v-1.71h1.75v1.71h2v1.4h-2v3.55a1.15,1.15,0,0,0,.27.83,1,1,0,0,0,.77.29,1.51,1.51,0,0,0,1-.31Z" transform="translate(-24.5 -6.16)" style="fill:#333"/><path d="M200,753.6l-2-2.87h-2.59v2.86h-1.82v-9.8h4a5.43,5.43,0,0,1,2.22.42,3.21,3.21,0,0,1,1.45,1.2,3.3,3.3,0,0,1-1.58,5L202,753.6Zm-.65-7.76a2.81,2.81,0,0,0-1.81-.5h-2.13v3.9h2.13a2.81,2.81,0,0,0,1.81-.51,2,2,0,0,0,0-2.89Z" transform="translate(-24.5 -6.16)" style="fill:#333"/><path d="M210.68,750.42h-5.87a2,2,0,0,0,.81,1.31,2.63,2.63,0,0,0,1.61.48,2.71,2.71,0,0,0,2-.81l.94,1.08a3.19,3.19,0,0,1-1.27.91,4.77,4.77,0,0,1-1.74.3,4.6,4.6,0,0,1-2.17-.49,3.53,3.53,0,0,1-1.45-1.36,3.87,3.87,0,0,1-.51-2,3.92,3.92,0,0,1,.5-2,3.47,3.47,0,0,1,1.38-1.36,4,4,0,0,1,2-.49,3.94,3.94,0,0,1,1.95.48,3.37,3.37,0,0,1,1.34,1.36,4.11,4.11,0,0,1,.49,2C210.71,750,210.7,750.19,210.68,750.42Zm-5.18-2.49a2.11,2.11,0,0,0-.7,1.33H209a2,2,0,0,0-.69-1.32,2.06,2.06,0,0,0-1.42-.5A2.14,2.14,0,0,0,205.5,747.93Z" transform="translate(-24.5 -6.16)" style="fill:#333"/><path d="M219.81,746.12v6.34q0,3.94-4,3.95a7.56,7.56,0,0,1-2-.27,4.44,4.44,0,0,1-1.6-.79l.79-1.32a3.63,3.63,0,0,0,1.24.65,4.94,4.94,0,0,0,1.52.25,2.5,2.5,0,0,0,1.8-.56,2.33,2.33,0,0,0,.58-1.71v-.39a3,3,0,0,1-1.1.74,3.8,3.8,0,0,1-1.41.25,4,4,0,0,1-1.93-.46,3.39,3.39,0,0,1-1.35-1.28,3.8,3.8,0,0,1,0-3.77,3.44,3.44,0,0,1,1.35-1.27,4.25,4.25,0,0,1,1.93-.44,4.14,4.14,0,0,1,1.48.26,2.8,2.8,0,0,1,1.11.81v-1Zm-2.36,5.06a2,2,0,0,0,.63-1.55,2,2,0,0,0-.63-1.52,2.57,2.57,0,0,0-3.28,0,2,2,0,0,0-.64,1.52,2,2,0,0,0,.64,1.55,2.54,2.54,0,0,0,3.28,0Z" transform="translate(-24.5 -6.16)" style="fill:#333"/><path d="M222.19,744.59a1,1,0,0,1,0-1.5,1.11,1.11,0,0,1,.79-.3,1.15,1.15,0,0,1,.8.28.94.94,0,0,1,.32.73,1,1,0,0,1-.31.77,1.1,1.1,0,0,1-.81.32A1.11,1.11,0,0,1,222.19,744.59Zm-.09,1.53h1.75v7.48H222.1Z" transform="translate(-24.5 -6.16)" style="fill:#333"/><path d="M226.68,753.46a4.39,4.39,0,0,1-1.39-.61l.68-1.33a4,4,0,0,0,1.21.54,4.83,4.83,0,0,0,1.39.21c1,0,1.57-.28,1.57-.83a.57.57,0,0,0-.4-.55,6.93,6.93,0,0,0-1.28-.29,10.21,10.21,0,0,1-1.51-.32,2.36,2.36,0,0,1-1-.64,1.79,1.79,0,0,1-.42-1.27,2,2,0,0,1,.89-1.7,4.07,4.07,0,0,1,2.4-.63,6.79,6.79,0,0,1,1.54.17,4.37,4.37,0,0,1,1.26.47l-.67,1.33a4.2,4.2,0,0,0-2.15-.56,2.45,2.45,0,0,0-1.17.23.69.69,0,0,0-.39.61.6.6,0,0,0,.42.59,6.5,6.5,0,0,0,1.33.33,10.28,10.28,0,0,1,1.47.33,2.23,2.23,0,0,1,1,.61,1.7,1.7,0,0,1,.42,1.23,2,2,0,0,1-.91,1.68,4.32,4.32,0,0,1-2.48.63A7.06,7.06,0,0,1,226.68,753.46Z" transform="translate(-24.5 -6.16)" style="fill:#333"/><path d="M237.85,753.19a2,2,0,0,1-.75.38,3.48,3.48,0,0,1-.93.12,2.63,2.63,0,0,1-1.9-.64,2.47,2.47,0,0,1-.67-1.88v-3.59h-1.24v-1.4h1.24v-1.71h1.75v1.71h2v1.4h-2v3.55a1.15,1.15,0,0,0,.26.83,1,1,0,0,0,.77.29,1.51,1.51,0,0,0,1-.31Z" transform="translate(-24.5 -6.16)" style="fill:#333"/><path d="M246,750.42h-5.86a2.06,2.06,0,0,0,.8,1.31,2.64,2.64,0,0,0,1.62.48,2.73,2.73,0,0,0,2-.81l.93,1.08a3.19,3.19,0,0,1-1.27.91,4.72,4.72,0,0,1-1.73.3,4.54,4.54,0,0,1-2.17-.49,3.47,3.47,0,0,1-1.45-1.36,3.87,3.87,0,0,1-.51-2,3.92,3.92,0,0,1,.49-2,3.47,3.47,0,0,1,1.38-1.36,4,4,0,0,1,2-.49,3.91,3.91,0,0,1,2,.48,3.4,3.4,0,0,1,1.35,1.36,4.11,4.11,0,0,1,.48,2C246.07,750,246.06,750.19,246,750.42Zm-5.17-2.49a2.08,2.08,0,0,0-.71,1.33h4.24a2,2,0,0,0-.68-1.32,2.08,2.08,0,0,0-1.43-.5A2.11,2.11,0,0,0,240.87,747.93Z" transform="translate(-24.5 -6.16)" style="fill:#333"/><path d="M252.07,746v1.66a1.94,1.94,0,0,0-.4,0,2.16,2.16,0,0,0-1.6.59,2.4,2.4,0,0,0-.57,1.72v3.63h-1.75v-7.48h1.67v1.09A2.91,2.91,0,0,1,252.07,746Z" transform="translate(-24.5 -6.16)" style="fill:#333"/><path d="M116.71,25.93h-6.24l-1.35,3h-1.23L113,17.72h1.17l5.12,11.2h-1.25Zm-.44-1-2.68-6-2.69,6Z" transform="translate(-24.5 -6.16)" style="fill:#333"/><path d="M121.15,17.05h2.93V18h-1.79V31.08h1.79v1h-2.93Z" transform="translate(-24.5 -6.16)" style="fill:#333"/><path d="M131.77,23.48a2.91,2.91,0,0,1,.92,2.23,3.2,3.2,0,0,1-.46,1.7,3.16,3.16,0,0,1-1.38,1.18,5.14,5.14,0,0,1-2.22.43,6.69,6.69,0,0,1-2.3-.39,4.65,4.65,0,0,1-1.74-1.05l.56-.91a4.22,4.22,0,0,0,1.49.93,5.45,5.45,0,0,0,2,.36,3.32,3.32,0,0,0,2.12-.6,2,2,0,0,0,.75-1.65,2,2,0,0,0-.75-1.63,3.6,3.6,0,0,0-2.27-.6h-.8v-.84l3.11-3.89h-5.73v-1h7.2v.82l-3.17,4A4.18,4.18,0,0,1,131.77,23.48Z" transform="translate(-24.5 -6.16)" style="fill:#333"/><path d="M137.41,17.72v11.2h-1.15V18.75h-2.64v-1Z" transform="translate(-24.5 -6.16)" style="fill:#333"/><path d="M140.34,21.93a.88.88,0,0,1-.24-.62.85.85,0,0,1,1.45-.62.84.84,0,0,1,.26.62.85.85,0,0,1-.26.62.83.83,0,0,1-1.21,0Zm0,6.82a.88.88,0,0,1-.24-.63.84.84,0,0,1,.24-.61.87.87,0,0,1,1.47.61.86.86,0,0,1-.26.63.86.86,0,0,1-1.21,0Z" transform="translate(-24.5 -6.16)" style="fill:#333"/><path d="M145.63,28.33a4.55,4.55,0,0,1-1.59-2,7.46,7.46,0,0,1-.57-3,7.45,7.45,0,0,1,.57-3,4.44,4.44,0,0,1,1.59-2,4,4,0,0,1,2.31-.69,4,4,0,0,1,2.31.69,4.44,4.44,0,0,1,1.59,2,7.44,7.44,0,0,1,.58,3,7.46,7.46,0,0,1-.58,3,4.55,4.55,0,0,1-1.59,2,4,4,0,0,1-2.31.69A4,4,0,0,1,145.63,28.33Zm4-.91a3.57,3.57,0,0,0,1.16-1.58,7,7,0,0,0,.41-2.52,7,7,0,0,0-.41-2.51,3.57,3.57,0,0,0-1.16-1.58,3,3,0,0,0-3.44,0,3.43,3.43,0,0,0-1.16,1.58,6.73,6.73,0,0,0-.42,2.51,6.75,6.75,0,0,0,.42,2.52,3.43,3.43,0,0,0,1.16,1.58,3,3,0,0,0,3.44,0Z" transform="translate(-24.5 -6.16)" style="fill:#333"/><path d="M153.57,32v-1h1.79V18h-1.79v-.95h2.93V32Z" transform="translate(-24.5 -6.16)" style="fill:#333"/><path d="M277.26,797.6h4.56a6.73,6.73,0,0,1,3.14.71,5.2,5.2,0,0,1,2.11,2,6,6,0,0,1,0,5.8,5.2,5.2,0,0,1-2.11,2,6.73,6.73,0,0,1-3.14.71h-4.56Zm4.5,10.18a5.46,5.46,0,0,0,2.58-.59,4.35,4.35,0,0,0,1.71-1.61,4.95,4.95,0,0,0,0-4.76,4.35,4.35,0,0,0-1.71-1.61,5.46,5.46,0,0,0-2.58-.59h-3.31v9.16Z" transform="translate(-24.5 -6.16)" style="fill:#333"/><path d="M290.48,796.93h2.93v.94h-1.79V811h1.79v.94h-2.93Z" transform="translate(-24.5 -6.16)" style="fill:#333"/><path d="M301.1,803.35a2.93,2.93,0,0,1,.92,2.23,3,3,0,0,1-1.84,2.88,5.15,5.15,0,0,1-2.23.44,6.45,6.45,0,0,1-2.29-.4,4.77,4.77,0,0,1-1.74-1l.56-.92a4,4,0,0,0,1.49.94,5.44,5.44,0,0,0,2,.36,3.33,3.33,0,0,0,2.13-.6,2,2,0,0,0,.75-1.66,2,2,0,0,0-.75-1.63,3.67,3.67,0,0,0-2.27-.59H297v-.85l3.1-3.89h-5.73v-1h7.2v.82l-3.16,4A4.15,4.15,0,0,1,301.1,803.35Z" transform="translate(-24.5 -6.16)" style="fill:#333"/><path d="M306.74,797.6v11.2h-1.16V798.62h-2.64v-1Z" transform="translate(-24.5 -6.16)" style="fill:#333"/><path d="M309.67,801.81a.89.89,0,0,1-.25-.63.85.85,0,0,1,.25-.61.87.87,0,0,1,1.47.61.86.86,0,0,1-.26.63.86.86,0,0,1-1.21,0Zm0,6.81a.89.89,0,0,1,0-1.24.88.88,0,0,1,1.21,0,.88.88,0,0,1-.61,1.5A.83.83,0,0,1,309.67,808.62Z" transform="translate(-24.5 -6.16)" style="fill:#333"/><path d="M315,808.21a4.5,4.5,0,0,1-1.58-2,8.34,8.34,0,0,1,0-6.06,4.5,4.5,0,0,1,1.58-2,4.23,4.23,0,0,1,4.63,0,4.67,4.67,0,0,1,1.59,2,8.34,8.34,0,0,1,0,6.06,4.67,4.67,0,0,1-1.59,2,4.23,4.23,0,0,1-4.63,0Zm4-.91a3.46,3.46,0,0,0,1.16-1.59,7.71,7.71,0,0,0,0-5A3.46,3.46,0,0,0,319,799.1a3,3,0,0,0-3.44,0,3.6,3.6,0,0,0-1.16,1.59,7.89,7.89,0,0,0,0,5,3.6,3.6,0,0,0,1.16,1.59,3,3,0,0,0,3.44,0Z" transform="translate(-24.5 -6.16)" style="fill:#333"/><path d="M322.9,811.9V811h1.79V797.87H322.9v-.94h2.92v15Z" transform="translate(-24.5 -6.16)" style="fill:#333"/><path d="M136.55,81.89h-4.9l-1,2.27h-1.88l4.41-9.8H135l4.43,9.8h-1.91Zm-.6-1.43-1.85-4.28-1.83,4.28Z" transform="translate(-24.5 -6.16)" style="fill:#333"/><path d="M147.77,73.77V84.16h-1.68v-1A2.72,2.72,0,0,1,145,84a3.62,3.62,0,0,1-1.41.27,3.9,3.9,0,0,1-1.94-.48,3.37,3.37,0,0,1-1.35-1.35,4.35,4.35,0,0,1,0-4,3.29,3.29,0,0,1,1.35-1.34,3.9,3.9,0,0,1,1.94-.48,3.54,3.54,0,0,1,1.36.25,2.73,2.73,0,0,1,1.05.76V73.77ZM145,82.47a2,2,0,0,0,.8-.82,2.43,2.43,0,0,0,.29-1.23,2.46,2.46,0,0,0-.29-1.23,2.1,2.1,0,0,0-.8-.82,2.24,2.24,0,0,0-1.13-.29,2.3,2.3,0,0,0-1.14.29,2.08,2.08,0,0,0-.79.82,2.46,2.46,0,0,0-.3,1.23,2.44,2.44,0,0,0,.3,1.23,2,2,0,0,0,.79.82,2.3,2.3,0,0,0,1.14.29A2.24,2.24,0,0,0,145,82.47Z" transform="translate(-24.5 -6.16)" style="fill:#333"/><path d="M157.38,73.77V84.16H155.7v-1a2.65,2.65,0,0,1-1.07.8,3.53,3.53,0,0,1-1.4.27,3.9,3.9,0,0,1-1.94-.48,3.37,3.37,0,0,1-1.35-1.35,4.35,4.35,0,0,1,0-4,3.29,3.29,0,0,1,1.35-1.34,3.9,3.9,0,0,1,1.94-.48,3.49,3.49,0,0,1,1.35.25,2.73,2.73,0,0,1,1,.76V73.77Zm-2.81,8.7a2,2,0,0,0,.8-.82,2.54,2.54,0,0,0,.29-1.23,2.57,2.57,0,0,0-.29-1.23,2.1,2.1,0,0,0-.8-.82,2.26,2.26,0,0,0-1.13-.29,2.3,2.3,0,0,0-1.14.29,2.17,2.17,0,0,0-.8.82,2.57,2.57,0,0,0-.29,1.23,2.54,2.54,0,0,0,.29,1.23,2.1,2.1,0,0,0,.8.82,2.3,2.3,0,0,0,1.14.29A2.26,2.26,0,0,0,154.57,82.47Z" transform="translate(-24.5 -6.16)" style="fill:#333"/><path d="M164,76.6v1.67a2.17,2.17,0,0,0-.41,0,2.13,2.13,0,0,0-1.6.6,2.39,2.39,0,0,0-.57,1.71v3.63h-1.75V76.68h1.67v1.1A2.9,2.9,0,0,1,164,76.6Z" transform="translate(-24.5 -6.16)" style="fill:#333"/><path d="M172.42,81h-5.87a2,2,0,0,0,.81,1.31,2.64,2.64,0,0,0,1.62.48,2.74,2.74,0,0,0,2-.81l.93,1.08a3.09,3.09,0,0,1-1.27.91,4.54,4.54,0,0,1-1.74.31,4.72,4.72,0,0,1-2.17-.49,3.61,3.61,0,0,1-1.45-1.37,3.84,3.84,0,0,1-.51-2,3.89,3.89,0,0,1,.5-2,3.5,3.5,0,0,1,1.38-1.37,4,4,0,0,1,2-.49,3.91,3.91,0,0,1,2,.48A3.5,3.5,0,0,1,172,78.44a4,4,0,0,1,.49,2C172.45,80.59,172.44,80.76,172.42,81Zm-5.17-2.48a2.05,2.05,0,0,0-.71,1.32h4.24a2.07,2.07,0,0,0-.68-1.32,2.13,2.13,0,0,0-1.43-.5A2.1,2.1,0,0,0,167.25,78.5Z" transform="translate(-24.5 -6.16)" style="fill:#333"/><path d="M174.66,84a4.64,4.64,0,0,1-1.39-.6l.68-1.33a4.51,4.51,0,0,0,1.21.54,5.19,5.19,0,0,0,1.39.2c1,0,1.57-.27,1.57-.83a.55.55,0,0,0-.4-.54,7.66,7.66,0,0,0-1.28-.3,10.21,10.21,0,0,1-1.51-.32,2.39,2.39,0,0,1-1-.63,1.82,1.82,0,0,1-.42-1.27,2,2,0,0,1,.89-1.7,4,4,0,0,1,2.4-.64,6.81,6.81,0,0,1,1.54.18,4.38,4.38,0,0,1,1.26.46l-.67,1.33a4.2,4.2,0,0,0-2.15-.56,2.32,2.32,0,0,0-1.17.24.68.68,0,0,0-.39.6.62.62,0,0,0,.42.6,6.5,6.5,0,0,0,1.33.33,10.42,10.42,0,0,1,1.47.32,2.25,2.25,0,0,1,1,.62,1.7,1.7,0,0,1,.42,1.23,2,2,0,0,1-.91,1.68,4.32,4.32,0,0,1-2.48.63A6.64,6.64,0,0,1,174.66,84Z" transform="translate(-24.5 -6.16)" style="fill:#333"/><path d="M181.87,84a4.64,4.64,0,0,1-1.39-.6l.68-1.33a4.51,4.51,0,0,0,1.21.54,5.19,5.19,0,0,0,1.39.2c1.05,0,1.57-.27,1.57-.83a.55.55,0,0,0-.4-.54,7.66,7.66,0,0,0-1.28-.3,10.21,10.21,0,0,1-1.51-.32,2.39,2.39,0,0,1-1-.63,1.82,1.82,0,0,1-.42-1.27,2,2,0,0,1,.89-1.7,4,4,0,0,1,2.4-.64,6.81,6.81,0,0,1,1.54.18,4.38,4.38,0,0,1,1.26.46l-.67,1.33A4.2,4.2,0,0,0,184,78a2.32,2.32,0,0,0-1.17.24.68.68,0,0,0-.39.6.62.62,0,0,0,.42.6,6.5,6.5,0,0,0,1.33.33,10.42,10.42,0,0,1,1.47.32,2.25,2.25,0,0,1,1,.62A1.7,1.7,0,0,1,187,82a2,2,0,0,1-.91,1.68,4.32,4.32,0,0,1-2.48.63A6.64,6.64,0,0,1,181.87,84Z" transform="translate(-24.5 -6.16)" style="fill:#333"/><path d="M199,84.16l-2-2.87H194.4v2.86h-1.82v-9.8h4a5.43,5.43,0,0,1,2.22.42,3.26,3.26,0,0,1,1.45,1.2,3.37,3.37,0,0,1,.5,1.87,3.31,3.31,0,0,1-.54,1.9,3.16,3.16,0,0,1-1.54,1.19L201,84.16Zm-.66-7.76a2.82,2.82,0,0,0-1.8-.5H194.4v3.91h2.13a2.7,2.7,0,0,0,1.8-.52,2,2,0,0,0,0-2.89Z" transform="translate(-24.5 -6.16)" style="fill:#333"/><path d="M209.65,81h-5.87a2,2,0,0,0,.8,1.31,2.68,2.68,0,0,0,1.62.48,2.73,2.73,0,0,0,2-.81l.94,1.08a3.16,3.16,0,0,1-1.27.91,4.61,4.61,0,0,1-1.74.31,4.69,4.69,0,0,1-2.17-.49,3.49,3.49,0,0,1-1.45-1.37,3.84,3.84,0,0,1-.51-2,3.89,3.89,0,0,1,.5-2,3.5,3.5,0,0,1,1.38-1.37,4.24,4.24,0,0,1,3.94,0,3.5,3.5,0,0,1,1.34,1.36,4.13,4.13,0,0,1,.48,2C209.67,80.59,209.66,80.76,209.65,81Zm-5.18-2.48a2,2,0,0,0-.7,1.32H208a2.18,2.18,0,0,0-3.54-1.32Z" transform="translate(-24.5 -6.16)" style="fill:#333"/><path d="M218.77,76.68V83q0,3.94-4,3.94a7.5,7.5,0,0,1-2-.27,4.21,4.21,0,0,1-1.6-.79l.79-1.32a3.77,3.77,0,0,0,1.23.66,5,5,0,0,0,1.52.24,2.53,2.53,0,0,0,1.81-.56,2.29,2.29,0,0,0,.57-1.71v-.39a2.86,2.86,0,0,1-1.09.74,3.8,3.8,0,0,1-1.41.25,4.13,4.13,0,0,1-1.93-.45,3.49,3.49,0,0,1-1.36-1.28,3.89,3.89,0,0,1,0-3.78,3.51,3.51,0,0,1,1.36-1.26,4.13,4.13,0,0,1,1.93-.45,3.85,3.85,0,0,1,1.47.27,2.59,2.59,0,0,1,1.12.81v-1Zm-2.36,5.07a2,2,0,0,0,.64-1.55,2,2,0,0,0-.64-1.53,2.3,2.3,0,0,0-1.63-.59,2.32,2.32,0,0,0-1.64.59,2,2,0,0,0-.64,1.53,2,2,0,0,0,.64,1.55,2.32,2.32,0,0,0,1.64.59A2.3,2.3,0,0,0,216.41,81.75Z" transform="translate(-24.5 -6.16)" style="fill:#333"/><path d="M221.15,75.15a1,1,0,0,1,0-1.5,1.14,1.14,0,0,1,.8-.3,1.17,1.17,0,0,1,.8.29.93.93,0,0,1,.32.72,1.06,1.06,0,0,1-.31.78,1.09,1.09,0,0,1-.81.31A1.14,1.14,0,0,1,221.15,75.15Zm-.08,1.53h1.75v7.48h-1.75Z" transform="translate(-24.5 -6.16)" style="fill:#333"/><path d="M225.65,84a4.64,4.64,0,0,1-1.39-.6l.67-1.33a4.66,4.66,0,0,0,1.21.54,5.26,5.26,0,0,0,1.4.2c1,0,1.56-.27,1.56-.83a.54.54,0,0,0-.39-.54,7.83,7.83,0,0,0-1.29-.3,10.33,10.33,0,0,1-1.5-.32,2.34,2.34,0,0,1-1-.63,1.82,1.82,0,0,1-.43-1.27,2,2,0,0,1,.89-1.7,4,4,0,0,1,2.4-.64,6.68,6.68,0,0,1,1.54.18,4.17,4.17,0,0,1,1.26.46l-.67,1.33a4.17,4.17,0,0,0-2.14-.56,2.32,2.32,0,0,0-1.17.24.69.69,0,0,0-.4.6.61.61,0,0,0,.43.6,6.37,6.37,0,0,0,1.32.33,9.82,9.82,0,0,1,1.47.32,2.28,2.28,0,0,1,1,.62,1.74,1.74,0,0,1,.41,1.23,1.94,1.94,0,0,1-.91,1.68,4.27,4.27,0,0,1-2.48.63A6.63,6.63,0,0,1,225.65,84Z" transform="translate(-24.5 -6.16)" style="fill:#333"/><path d="M236.82,83.75a2,2,0,0,1-.75.38,3.12,3.12,0,0,1-.93.13,2.66,2.66,0,0,1-1.91-.65,2.48,2.48,0,0,1-.67-1.87v-3.6h-1.23v-1.4h1.23V75h1.75v1.71h2v1.4h-2V81.7a1.17,1.17,0,0,0,.27.83,1,1,0,0,0,.77.29,1.57,1.57,0,0,0,1-.31Z" transform="translate(-24.5 -6.16)" style="fill:#333"/><path d="M245,81h-5.87a2,2,0,0,0,.81,1.31,2.63,2.63,0,0,0,1.61.48,2.71,2.71,0,0,0,2-.81l.94,1.08a3.09,3.09,0,0,1-1.27.91,4.54,4.54,0,0,1-1.74.31,4.72,4.72,0,0,1-2.17-.49,3.55,3.55,0,0,1-1.45-1.37,3.84,3.84,0,0,1-.51-2,3.89,3.89,0,0,1,.5-2,3.5,3.5,0,0,1,1.38-1.37,4,4,0,0,1,2-.49,3.94,3.94,0,0,1,2,.48,3.5,3.5,0,0,1,1.34,1.36,4,4,0,0,1,.49,2C245,80.59,245,80.76,245,81Zm-5.17-2.48a2.05,2.05,0,0,0-.71,1.32h4.24a2.07,2.07,0,0,0-.68-1.32,2.13,2.13,0,0,0-1.43-.5A2.1,2.1,0,0,0,239.84,78.5Z" transform="translate(-24.5 -6.16)" style="fill:#333"/><path d="M251,76.6v1.67a2.08,2.08,0,0,0-.4,0,2.11,2.11,0,0,0-1.6.6,2.39,2.39,0,0,0-.57,1.71v3.63h-1.75V76.68h1.66v1.1A2.91,2.91,0,0,1,251,76.6Z" transform="translate(-24.5 -6.16)" style="fill:#333"/><path d="M143.17,261.52,141,258.44l-.4,0h-2.37v3.06H136.3V251h4.32a5.76,5.76,0,0,1,2.37.45,3.45,3.45,0,0,1,1.56,1.29,3.91,3.91,0,0,1,0,4,3.47,3.47,0,0,1-1.66,1.28l2.42,3.45Zm-.71-8.31a3,3,0,0,0-1.93-.54h-2.28v4.18h2.28a2.92,2.92,0,0,0,1.93-.55,1.89,1.89,0,0,0,.66-1.55A1.87,1.87,0,0,0,142.46,253.21Z" transform="translate(-24.5 -6.16)" style="fill:#333"/><path d="M154.58,258.11H148.3a2.14,2.14,0,0,0,.86,1.4,2.78,2.78,0,0,0,1.73.52,2.93,2.93,0,0,0,2.18-.87l1,1.16a3.36,3.36,0,0,1-1.36,1,5.45,5.45,0,0,1-4.19-.19,3.73,3.73,0,0,1-1.55-1.47,4.06,4.06,0,0,1-.55-2.12,4.26,4.26,0,0,1,.53-2.11,3.84,3.84,0,0,1,1.48-1.46,4.31,4.31,0,0,1,2.13-.52,4.23,4.23,0,0,1,2.09.51,3.61,3.61,0,0,1,1.44,1.46,4.36,4.36,0,0,1,.52,2.17C154.61,257.69,154.6,257.87,154.58,258.11ZM149,255.45a2.21,2.21,0,0,0-.76,1.42h4.55a2.34,2.34,0,0,0-3.79-1.42Z" transform="translate(-24.5 -6.16)" style="fill:#333"/><path d="M164.36,253.51v6.79q0,4.23-4.32,4.23a8.21,8.21,0,0,1-2.19-.29,4.73,4.73,0,0,1-1.71-.85L157,262a4.07,4.07,0,0,0,1.33.7,5.34,5.34,0,0,0,1.63.26,2.67,2.67,0,0,0,1.93-.6,2.45,2.45,0,0,0,.62-1.83v-.42a3.09,3.09,0,0,1-1.17.8,4.15,4.15,0,0,1-1.52.27,4.38,4.38,0,0,1-2.06-.49,3.7,3.7,0,0,1-1.46-1.37,4.13,4.13,0,0,1,0-4.05,3.66,3.66,0,0,1,1.46-1.35,4.38,4.38,0,0,1,2.06-.48,4.19,4.19,0,0,1,1.58.28,2.91,2.91,0,0,1,1.2.87v-1.06Zm-2.53,5.42a2.17,2.17,0,0,0,.69-1.66,2.1,2.1,0,0,0-.69-1.63,2.45,2.45,0,0,0-1.74-.63,2.52,2.52,0,0,0-1.77.63,2.13,2.13,0,0,0-.68,1.63,2.19,2.19,0,0,0,.68,1.66,2.53,2.53,0,0,0,1.77.64A2.45,2.45,0,0,0,161.83,258.93Z" transform="translate(-24.5 -6.16)" style="fill:#333"/><path d="M166.91,251.86a1.11,1.11,0,0,1,0-1.6,1.19,1.19,0,0,1,.86-.32,1.24,1.24,0,0,1,.85.3,1,1,0,0,1,.35.78,1.16,1.16,0,0,1-.34.83,1.27,1.27,0,0,1-1.72,0Zm-.09,1.65h1.88v8h-1.88Z" transform="translate(-24.5 -6.16)" style="fill:#333"/><path d="M171.73,261.37a4.82,4.82,0,0,1-1.49-.65l.72-1.42a4.44,4.44,0,0,0,1.3.57,5.17,5.17,0,0,0,1.49.22c1.12,0,1.68-.29,1.68-.88a.59.59,0,0,0-.43-.59,7.33,7.33,0,0,0-1.37-.31A10.87,10.87,0,0,1,172,258a2.46,2.46,0,0,1-1.08-.68,1.9,1.9,0,0,1-.46-1.36,2.13,2.13,0,0,1,1-1.82,4.33,4.33,0,0,1,2.58-.68,7.72,7.72,0,0,1,1.65.18,4.77,4.77,0,0,1,1.35.51l-.72,1.42a4.46,4.46,0,0,0-2.3-.6,2.46,2.46,0,0,0-1.25.25.72.72,0,0,0-.43.65.66.66,0,0,0,.46.64,7.63,7.63,0,0,0,1.42.35,10.78,10.78,0,0,1,1.57.35,2.5,2.5,0,0,1,1.06.66,1.86,1.86,0,0,1,.44,1.32,2.08,2.08,0,0,1-1,1.8,4.62,4.62,0,0,1-2.66.67A7.13,7.13,0,0,1,171.73,261.37Z" transform="translate(-24.5 -6.16)" style="fill:#333"/><path d="M183.7,261.08a2.21,2.21,0,0,1-.81.41,3.54,3.54,0,0,1-1,.13,2.83,2.83,0,0,1-2-.69,2.66,2.66,0,0,1-.72-2v-3.85h-1.32v-1.5h1.32v-1.83H181v1.83h2.15v1.5H181v3.81a1.27,1.27,0,0,0,.29.89,1.08,1.08,0,0,0,.82.31,1.65,1.65,0,0,0,1-.33Z" transform="translate(-24.5 -6.16)" style="fill:#333"/><path d="M192.47,258.11h-6.28a2.14,2.14,0,0,0,.86,1.4,2.78,2.78,0,0,0,1.73.52,2.93,2.93,0,0,0,2.18-.87l1,1.16a3.36,3.36,0,0,1-1.36,1,5.45,5.45,0,0,1-4.19-.19,3.73,3.73,0,0,1-1.55-1.47,4.06,4.06,0,0,1-.55-2.12,4.26,4.26,0,0,1,.53-2.11,3.84,3.84,0,0,1,1.48-1.46,4.31,4.31,0,0,1,2.13-.52,4.23,4.23,0,0,1,2.09.51,3.61,3.61,0,0,1,1.44,1.46,4.36,4.36,0,0,1,.52,2.17C192.5,257.69,192.49,257.87,192.47,258.11Zm-5.54-2.66a2.21,2.21,0,0,0-.76,1.42h4.55a2.34,2.34,0,0,0-3.79-1.42Z" transform="translate(-24.5 -6.16)" style="fill:#333"/><path d="M198.94,253.42v1.78a2.39,2.39,0,0,0-.44,0,2.28,2.28,0,0,0-1.71.63,2.56,2.56,0,0,0-.61,1.84v3.89H194.3v-8h1.79v1.17A3.12,3.12,0,0,1,198.94,253.42Z" transform="translate(-24.5 -6.16)" style="fill:#333"/><path d="M213.74,257a2.65,2.65,0,0,1,.51,1.66,2.41,2.41,0,0,1-1.05,2.1,5.23,5.23,0,0,1-3.06.75h-5.22V251h4.92a4.89,4.89,0,0,1,2.87.72,2.35,2.35,0,0,1,1,2,2.63,2.63,0,0,1-.36,1.38,2.46,2.46,0,0,1-1,.93A2.74,2.74,0,0,1,213.74,257Zm-6.87-4.46v2.89h2.76a2.78,2.78,0,0,0,1.57-.37,1.21,1.21,0,0,0,.55-1.07,1.25,1.25,0,0,0-.55-1.09,2.87,2.87,0,0,0-1.57-.36Zm5.42,5.92c0-1-.76-1.51-2.27-1.51h-3.15v3H210C211.53,260,212.29,259.48,212.29,258.47Z" transform="translate(-24.5 -6.16)" style="fill:#333"/><path d="M221.92,254.26a3.27,3.27,0,0,1,.94,2.56v4.7h-1.77v-1a2.16,2.16,0,0,1-1,.8,3.78,3.78,0,0,1-1.54.28,3.67,3.67,0,0,1-1.57-.31,2.48,2.48,0,0,1-1.05-.85,2.22,2.22,0,0,1-.36-1.24,2.09,2.09,0,0,1,.8-1.73,4,4,0,0,1,2.53-.65H221v-.12a1.63,1.63,0,0,0-.51-1.29A2.16,2.16,0,0,0,219,255a4.35,4.35,0,0,0-1.33.21,3.29,3.29,0,0,0-1.1.58l-.73-1.36a4.53,4.53,0,0,1,1.51-.74,6.78,6.78,0,0,1,1.88-.25A3.9,3.9,0,0,1,221.92,254.26Zm-1.71,5.67A1.72,1.72,0,0,0,221,259v-.93h-1.94c-1.08,0-1.62.36-1.62,1.07a1,1,0,0,0,.41.81,1.84,1.84,0,0,0,1.12.3A2.36,2.36,0,0,0,220.21,259.93Z" transform="translate(-24.5 -6.16)" style="fill:#333"/><path d="M232.24,254.3a3.5,3.5,0,0,1,.91,2.63v4.59h-1.87v-4.35a2.28,2.28,0,0,0-.5-1.59,1.85,1.85,0,0,0-1.41-.53,2.17,2.17,0,0,0-1.63.62,2.47,2.47,0,0,0-.6,1.8v4h-1.88v-8h1.79v1a2.86,2.86,0,0,1,1.17-.84,4.21,4.21,0,0,1,1.59-.28A3.34,3.34,0,0,1,232.24,254.3Z" transform="translate(-24.5 -6.16)" style="fill:#333"/><path d="M238.81,258.08l-1.4,1.32v2.12h-1.87V250.39h1.87v6.72l3.89-3.6h2.25l-3.35,3.36,3.66,4.65h-2.28Z" transform="translate(-24.5 -6.16)" style="fill:#333"/><path d="M192.43,508.11a2.45,2.45,0,0,1,.48,1.55,2.26,2.26,0,0,1-1,2,4.92,4.92,0,0,1-2.86.7H184.2v-9.8h4.59a4.48,4.48,0,0,1,2.68.68,2.18,2.18,0,0,1,.94,1.86,2.48,2.48,0,0,1-.34,1.29,2.27,2.27,0,0,1-.92.87A2.53,2.53,0,0,1,192.43,508.11ZM186,503.94v2.71h2.58a2.6,2.6,0,0,0,1.46-.35,1.25,1.25,0,0,0,0-2,2.6,2.6,0,0,0-1.46-.35Zm5.06,5.53c0-.94-.71-1.41-2.12-1.41H186v2.83H189C190.37,510.89,191.08,510.42,191.08,509.47Z" transform="translate(-24.5 -6.16)" style="fill:#333"/><path d="M200.07,505.55a3.05,3.05,0,0,1,.88,2.38v4.39h-1.66v-.91a2.12,2.12,0,0,1-.91.75,3.67,3.67,0,0,1-1.44.25,3.54,3.54,0,0,1-1.47-.28,2.27,2.27,0,0,1-1-.8,2,2,0,0,1-.34-1.16,2,2,0,0,1,.75-1.61,3.65,3.65,0,0,1,2.35-.61h1.94v-.11a1.54,1.54,0,0,0-.47-1.21,2.05,2.05,0,0,0-1.4-.42,4,4,0,0,0-1.23.2,3,3,0,0,0-1,.54l-.69-1.27a4.22,4.22,0,0,1,1.41-.69,6.72,6.72,0,0,1,1.75-.23A3.62,3.62,0,0,1,200.07,505.55Zm-1.59,5.29a1.65,1.65,0,0,0,.72-.86v-.87h-1.81c-1,0-1.51.33-1.51,1a.88.88,0,0,0,.38.76,1.7,1.7,0,0,0,1.05.28A2.29,2.29,0,0,0,198.48,510.84Z" transform="translate(-24.5 -6.16)" style="fill:#333"/><path d="M207.51,504.76v1.66a2,2,0,0,0-.4,0,2.11,2.11,0,0,0-1.6.6,2.35,2.35,0,0,0-.57,1.71v3.63h-1.75v-7.48h1.66v1.09A2.93,2.93,0,0,1,207.51,504.76Z" transform="translate(-24.5 -6.16)" style="fill:#333"/><path d="M213.32,504.76v1.66a2,2,0,0,0-.4,0,2.11,2.11,0,0,0-1.6.6,2.35,2.35,0,0,0-.57,1.71v3.63H209v-7.48h1.66v1.09A2.93,2.93,0,0,1,213.32,504.76Z" transform="translate(-24.5 -6.16)" style="fill:#333"/><path d="M221.74,509.14h-5.87a2,2,0,0,0,.81,1.31,2.63,2.63,0,0,0,1.61.48,2.73,2.73,0,0,0,2-.81l.94,1.08a3.26,3.26,0,0,1-1.27.91,4.77,4.77,0,0,1-1.74.3,4.6,4.6,0,0,1-2.17-.49,3.53,3.53,0,0,1-1.45-1.36,3.84,3.84,0,0,1-.51-2,3.92,3.92,0,0,1,.5-2,3.47,3.47,0,0,1,1.38-1.36,4.24,4.24,0,0,1,3.94,0,3.37,3.37,0,0,1,1.34,1.36,4.11,4.11,0,0,1,.48,2C221.76,508.74,221.76,508.91,221.74,509.14Zm-5.18-2.49a2.11,2.11,0,0,0-.7,1.33h4.24a2,2,0,0,0-2.12-1.82A2.11,2.11,0,0,0,216.56,506.65Z" transform="translate(-24.5 -6.16)" style="fill:#333"/><path d="M223.44,501.93h1.75v10.39h-1.75Z" transform="translate(-24.5 -6.16)" style="fill:#333"/><path d="M232.37,512.13a4.51,4.51,0,0,1-1.67-.85l.63-1.41a5.09,5.09,0,0,0,1.47.77,5.43,5.43,0,0,0,1.76.3,3,3,0,0,0,1.63-.35,1.05,1.05,0,0,0,.54-.92.89.89,0,0,0-.3-.69,2,2,0,0,0-.76-.43c-.31-.1-.73-.22-1.26-.35a15.14,15.14,0,0,1-1.82-.53,3,3,0,0,1-1.19-.84,2.22,2.22,0,0,1-.49-1.53,2.54,2.54,0,0,1,.44-1.47,2.88,2.88,0,0,1,1.33-1.06,5.4,5.4,0,0,1,2.17-.39,7,7,0,0,1,1.77.22,4.89,4.89,0,0,1,1.5.64l-.58,1.42a5.85,5.85,0,0,0-1.34-.58,5.06,5.06,0,0,0-1.36-.19,2.85,2.85,0,0,0-1.6.36,1.14,1.14,0,0,0-.53,1,.85.85,0,0,0,.3.68,2.1,2.1,0,0,0,.77.42,12.45,12.45,0,0,0,1.26.35,14.3,14.3,0,0,1,1.79.53A3.09,3.09,0,0,1,238,508a2.17,2.17,0,0,1,.5,1.51,2.5,2.5,0,0,1-.44,1.47,3,3,0,0,1-1.34,1,5.24,5.24,0,0,1-2.18.4A7.26,7.26,0,0,1,232.37,512.13Z" transform="translate(-24.5 -6.16)" style="fill:#333"/><path d="M246.67,505.58a3.26,3.26,0,0,1,.85,2.45v4.29h-1.75v-4.06a2.08,2.08,0,0,0-.46-1.48,1.7,1.7,0,0,0-1.31-.5,2,2,0,0,0-1.53.58,2.35,2.35,0,0,0-.56,1.68v3.78h-1.75V501.93h1.75v3.78A3,3,0,0,1,243,505a4,4,0,0,1,1.42-.24A3.13,3.13,0,0,1,246.67,505.58Z" transform="translate(-24.5 -6.16)" style="fill:#333"/><path d="M249.83,503.31a1,1,0,0,1,0-1.5,1.14,1.14,0,0,1,.8-.3,1.15,1.15,0,0,1,.8.28,1,1,0,0,1,.32.73,1,1,0,0,1-.31.77,1.1,1.1,0,0,1-.81.32A1.14,1.14,0,0,1,249.83,503.31Zm-.08,1.53h1.75v7.48h-1.75Z" transform="translate(-24.5 -6.16)" style="fill:#333"/><path d="M255.73,504.45v.45h2.06v1.4h-2v6H254v-6H252.8v-1.4H254v-.48a2.6,2.6,0,0,1,.7-1.9,3.21,3.21,0,0,1,3.56-.28l-.49,1.31a1.72,1.72,0,0,0-1-.31C256.1,503.24,255.73,503.65,255.73,504.45Z" transform="translate(-24.5 -6.16)" style="fill:#333"/><path d="M263.46,511.91a2.21,2.21,0,0,1-.75.38,3.59,3.59,0,0,1-.93.12,2.64,2.64,0,0,1-1.91-.64,2.47,2.47,0,0,1-.67-1.88V506.3H258v-1.4h1.23v-1.71H261v1.71h2v1.4h-2v3.55a1.19,1.19,0,0,0,.27.84,1,1,0,0,0,.77.28,1.53,1.53,0,0,0,1-.31Z" transform="translate(-24.5 -6.16)" style="fill:#333"/><path d="M271.65,509.14h-5.87a2,2,0,0,0,.8,1.31,2.68,2.68,0,0,0,1.62.48,2.73,2.73,0,0,0,2-.81l.94,1.08a3.26,3.26,0,0,1-1.27.91,4.81,4.81,0,0,1-1.74.3,4.6,4.6,0,0,1-2.17-.49,3.47,3.47,0,0,1-1.45-1.36,3.84,3.84,0,0,1-.51-2,3.92,3.92,0,0,1,.5-2,3.47,3.47,0,0,1,1.38-1.36,4.24,4.24,0,0,1,3.94,0,3.37,3.37,0,0,1,1.34,1.36,4.11,4.11,0,0,1,.48,2C271.67,508.74,271.66,508.91,271.65,509.14Zm-5.18-2.49a2.11,2.11,0,0,0-.7,1.33H270a2.1,2.1,0,0,0-.69-1.32,2.06,2.06,0,0,0-1.43-.5A2.11,2.11,0,0,0,266.47,506.65Z" transform="translate(-24.5 -6.16)" style="fill:#333"/><path d="M277.68,504.76v1.66a2.35,2.35,0,0,0-2,.56,2.32,2.32,0,0,0-.58,1.71v3.63h-1.75v-7.48H275v1.09A2.92,2.92,0,0,1,277.68,504.76Z" transform="translate(-24.5 -6.16)" style="fill:#333"/><path d="M180.5,600.22H176l-.87,2.1h-2.32l4.37-9.8h2.24l4.38,9.8h-2.38Zm-.71-1.73-1.56-3.75-1.55,3.75Z" transform="translate(-24.5 -6.16)" style="fill:#333"/><path d="M184.77,592.52H187v8H192v1.85h-7.18Z" transform="translate(-24.5 -6.16)" style="fill:#333"/><path d="M194.19,601.32A4.46,4.46,0,0,1,193,598v-5.48h2.27v5.4c0,1.75.72,2.63,2.18,2.63a2,2,0,0,0,1.62-.63,3,3,0,0,0,.56-2v-5.4h2.24V598a4.5,4.5,0,0,1-1.16,3.32,5.19,5.19,0,0,1-6.54,0Z" transform="translate(-24.5 -6.16)" style="fill:#333"/><path d="M197.2,145.56H199v9.8H197.2Z" transform="translate(-24.5 -6.16)" style="fill:#333"/><path d="M208,148.62a3.26,3.26,0,0,1,.85,2.45v4.29h-1.75V151.3a2.08,2.08,0,0,0-.46-1.48,1.7,1.7,0,0,0-1.31-.5,2,2,0,0,0-1.53.58,2.35,2.35,0,0,0-.56,1.68v3.78H201.5v-7.48h1.67v1a2.72,2.72,0,0,1,1.09-.79,3.87,3.87,0,0,1,1.48-.26A3.12,3.12,0,0,1,208,148.62Z" transform="translate(-24.5 -6.16)" style="fill:#333"/><path d="M212.5,155a3.63,3.63,0,0,1-1.44-1.36,4,4,0,0,1,0-4,3.67,3.67,0,0,1,1.44-1.35,4.33,4.33,0,0,1,2.09-.49,4.14,4.14,0,0,1,1.94.44,2.94,2.94,0,0,1,1.25,1.29l-1.34.79a2.08,2.08,0,0,0-.81-.78,2.34,2.34,0,0,0-2.68.38,2.58,2.58,0,0,0,0,3.4,2.34,2.34,0,0,0,2.68.38,2.16,2.16,0,0,0,.81-.78l1.34.78a3,3,0,0,1-1.26,1.3,4,4,0,0,1-1.93.45A4.38,4.38,0,0,1,212.5,155Z" transform="translate(-24.5 -6.16)" style="fill:#333"/><path d="M223.62,147.8v1.66a2,2,0,0,0-.41,0,2.09,2.09,0,0,0-1.59.6,2.36,2.36,0,0,0-.58,1.71v3.63h-1.75v-7.48H221V149A2.92,2.92,0,0,1,223.62,147.8Z" transform="translate(-24.5 -6.16)" style="fill:#333"/><path d="M232,152.18h-5.86a2,2,0,0,0,.8,1.31,2.68,2.68,0,0,0,1.62.48,2.73,2.73,0,0,0,2-.81l.94,1.08a3.22,3.22,0,0,1-1.28.91,4.72,4.72,0,0,1-1.73.3,4.57,4.57,0,0,1-2.17-.49,3.47,3.47,0,0,1-1.45-1.36,4.11,4.11,0,0,1,0-3.95,3.51,3.51,0,0,1,1.37-1.36,4.26,4.26,0,0,1,4,0,3.37,3.37,0,0,1,1.34,1.36,4.11,4.11,0,0,1,.48,2C232.06,151.78,232.05,152,232,152.18Zm-5.17-2.49a2.13,2.13,0,0,0-.71,1.33h4.25a2.1,2.1,0,0,0-.69-1.32,2.06,2.06,0,0,0-1.43-.5A2.11,2.11,0,0,0,226.86,149.69Z" transform="translate(-24.5 -6.16)" style="fill:#333"/><path d="M245.42,148.61a3.34,3.34,0,0,1,.82,2.46v4.29h-1.75V151.3a2.18,2.18,0,0,0-.43-1.48,1.57,1.57,0,0,0-1.25-.5,1.85,1.85,0,0,0-1.41.58,2.4,2.4,0,0,0-.53,1.66v3.8h-1.75V151.3a2.18,2.18,0,0,0-.44-1.48,1.55,1.55,0,0,0-1.24-.5,1.8,1.8,0,0,0-1.42.58,2.36,2.36,0,0,0-.53,1.66v3.8h-1.75v-7.48h1.67v1a2.81,2.81,0,0,1,1.05-.77,3.49,3.49,0,0,1,1.4-.26,3.36,3.36,0,0,1,1.49.31,2.44,2.44,0,0,1,1,.93,3,3,0,0,1,1.19-.91,3.83,3.83,0,0,1,1.61-.33A3.06,3.06,0,0,1,245.42,148.61Z" transform="translate(-24.5 -6.16)" style="fill:#333"/><path d="M255.55,152.18h-5.86a2,2,0,0,0,.8,1.31,2.68,2.68,0,0,0,1.62.48,2.73,2.73,0,0,0,2-.81l.94,1.08a3.22,3.22,0,0,1-1.28.91,4.72,4.72,0,0,1-1.73.3,4.57,4.57,0,0,1-2.17-.49,3.47,3.47,0,0,1-1.45-1.36,3.84,3.84,0,0,1-.51-2,3.92,3.92,0,0,1,.49-2,3.6,3.6,0,0,1,1.38-1.36,4,4,0,0,1,2-.49,3.91,3.91,0,0,1,1.95.48,3.34,3.34,0,0,1,1.35,1.36,4.11,4.11,0,0,1,.48,2C255.58,151.78,255.57,152,255.55,152.18Zm-5.17-2.49a2.13,2.13,0,0,0-.71,1.33h4.25a2.1,2.1,0,0,0-.69-1.32,2.06,2.06,0,0,0-1.43-.5A2.11,2.11,0,0,0,250.38,149.69Z" transform="translate(-24.5 -6.16)" style="fill:#333"/><path d="M263.77,148.62a3.26,3.26,0,0,1,.86,2.45v4.29h-1.75V151.3a2.09,2.09,0,0,0-.47-1.48,1.69,1.69,0,0,0-1.31-.5,2,2,0,0,0-1.53.58,2.35,2.35,0,0,0-.56,1.68v3.78h-1.75v-7.48h1.67v1a2.72,2.72,0,0,1,1.09-.79,3.87,3.87,0,0,1,1.48-.26A3.12,3.12,0,0,1,263.77,148.62Z" transform="translate(-24.5 -6.16)" style="fill:#333"/><path d="M271.35,155a2.21,2.21,0,0,1-.75.38,3.59,3.59,0,0,1-.93.12,2.64,2.64,0,0,1-1.91-.64,2.47,2.47,0,0,1-.67-1.88v-3.59h-1.23v-1.4h1.23v-1.71h1.75v1.71h2v1.4h-2v3.55a1.19,1.19,0,0,0,.27.84,1,1,0,0,0,.77.28,1.53,1.53,0,0,0,1-.31Z" transform="translate(-24.5 -6.16)" style="fill:#333"/><path d="M279.54,152.18h-5.87a2,2,0,0,0,.8,1.31,2.68,2.68,0,0,0,1.62.48,2.73,2.73,0,0,0,2-.81l.94,1.08a3.26,3.26,0,0,1-1.27.91,4.81,4.81,0,0,1-1.74.3,4.57,4.57,0,0,1-2.17-.49,3.47,3.47,0,0,1-1.45-1.36,3.84,3.84,0,0,1-.51-2,3.92,3.92,0,0,1,.5-2,3.47,3.47,0,0,1,1.38-1.36,4.24,4.24,0,0,1,3.94,0,3.37,3.37,0,0,1,1.34,1.36,4.11,4.11,0,0,1,.48,2C279.56,151.78,279.55,152,279.54,152.18Zm-5.18-2.49a2.11,2.11,0,0,0-.7,1.33h4.24a2.1,2.1,0,0,0-.69-1.32,2.06,2.06,0,0,0-1.43-.5A2.11,2.11,0,0,0,274.36,149.69Z" transform="translate(-24.5 -6.16)" style="fill:#333"/><path d="M285.57,147.8v1.66a2.35,2.35,0,0,0-2,.56,2.36,2.36,0,0,0-.58,1.71v3.63h-1.75v-7.48h1.67V149A2.92,2.92,0,0,1,285.57,147.8Z" transform="translate(-24.5 -6.16)" style="fill:#333"/><path d="M321.35,218a3.48,3.48,0,0,1,1.55,1.29,3.94,3.94,0,0,1,0,4,3.43,3.43,0,0,1-1.55,1.3A5.84,5.84,0,0,1,319,225H316.6v3h-2v-10.5H319A5.84,5.84,0,0,1,321.35,218Zm-.53,4.83a2.14,2.14,0,0,0,0-3.09,3,3,0,0,0-1.94-.54H316.6v4.17h2.28A3,3,0,0,0,320.82,222.82Z" transform="translate(-24.5 -6.16)" style="fill:#333"/><path d="M331.67,227.49a5,5,0,0,1-2-1.93,5.26,5.26,0,0,1-.73-2.77,5.17,5.17,0,0,1,.74-2.77,5.11,5.11,0,0,1,2-1.93,5.9,5.9,0,0,1,2.88-.7,6,6,0,0,1,2.35.45,4.82,4.82,0,0,1,1.8,1.31l-1.26,1.18a3.68,3.68,0,0,0-2.8-1.23,4,4,0,0,0-1.94.47,3.38,3.38,0,0,0-1.33,1.32,4,4,0,0,0,0,3.8,3.31,3.31,0,0,0,1.33,1.32,4,4,0,0,0,1.94.47,3.63,3.63,0,0,0,2.8-1.25l1.26,1.21a4.86,4.86,0,0,1-1.81,1.3,6,6,0,0,1-2.36.45A5.84,5.84,0,0,1,331.67,227.49Z" transform="translate(-24.5 -6.16)" style="fill:#333"/><path d="M133.13,152.56a3.41,3.41,0,0,1,1.35,1.34,4.35,4.35,0,0,1,0,4,3.5,3.5,0,0,1-1.35,1.35,4,4,0,0,1-2,.48,3,3,0,0,1-2.39-1v3.63H127v-10.2h1.66v1a2.7,2.7,0,0,1,1.07-.79,3.62,3.62,0,0,1,1.41-.27A4,4,0,0,1,133.13,152.56Zm-.57,5a2.33,2.33,0,0,0,.63-1.7,2.31,2.31,0,0,0-.63-1.69,2.1,2.1,0,0,0-1.58-.65,2.3,2.3,0,0,0-1.14.29,2.17,2.17,0,0,0-.8.82,2.57,2.57,0,0,0-.29,1.23,2.54,2.54,0,0,0,.29,1.23,2.1,2.1,0,0,0,.8.82,2.3,2.3,0,0,0,1.14.29A2.09,2.09,0,0,0,132.56,157.6Z" transform="translate(-24.5 -6.16)" style="fill:#333"/><path d="M128.37,176.05a3.59,3.59,0,0,1-1.44-1.37,4,4,0,0,1,0-4,3.6,3.6,0,0,1,1.43-1.36,4.37,4.37,0,0,1,2.1-.49,4,4,0,0,1,1.94.45,2.94,2.94,0,0,1,1.25,1.29l-1.34.78a2.27,2.27,0,0,0-3.49-.4,2.59,2.59,0,0,0,0,3.4,2.36,2.36,0,0,0,2.69.38,2.15,2.15,0,0,0,.81-.78l1.34.79a3,3,0,0,1-1.27,1.29,3.84,3.84,0,0,1-1.92.46A4.47,4.47,0,0,1,128.37,176.05Z" transform="translate(-24.5 -6.16)" style="fill:#333"/><path d="M131.35,407.93h-4.9l-1,2.27h-1.88l4.41-9.8h1.79l4.43,9.8h-1.91Zm-.6-1.43-1.85-4.28-1.83,4.28Z" transform="translate(-24.5 -6.16)" style="fill:#333"/><path d="M132.83,447.59a2.46,2.46,0,0,1,.47,1.55,2.26,2.26,0,0,1-1,2,4.91,4.91,0,0,1-2.85.69H124.6V442h4.59a4.5,4.5,0,0,1,2.67.68,2.16,2.16,0,0,1,.94,1.87,2.44,2.44,0,0,1-.34,1.29,2.25,2.25,0,0,1-.92.86A2.66,2.66,0,0,1,132.83,447.59Zm-6.41-4.16v2.7H129a2.58,2.58,0,0,0,1.46-.34,1.24,1.24,0,0,0,0-2,2.58,2.58,0,0,0-1.46-.34Zm5,5.53c0-.94-.7-1.42-2.11-1.42h-2.94v2.83h2.94C130.77,450.37,131.47,449.9,131.47,449Z" transform="translate(-24.5 -6.16)" style="fill:#333"/><path d="M125.65,470.8a4.43,4.43,0,0,1-1.14-3.27V462h1.82v5.46q0,2.88,2.49,2.88c1.66,0,2.48-1,2.48-2.88V462h1.79v5.53A4.46,4.46,0,0,1,132,470.8a4.95,4.95,0,0,1-6.32,0Z" transform="translate(-24.5 -6.16)" style="fill:#333"/><path d="M125.44,491.62a4.59,4.59,0,0,1-1.67-.86l.63-1.41a4.82,4.82,0,0,0,1.48.78,5.37,5.37,0,0,0,1.75.3,3,3,0,0,0,1.63-.35,1.07,1.07,0,0,0,.54-.93.89.89,0,0,0-.3-.69,2.22,2.22,0,0,0-.76-.43c-.31-.1-.73-.22-1.26-.35a12.88,12.88,0,0,1-1.81-.53,2.92,2.92,0,0,1-1.19-.83,2.25,2.25,0,0,1-.5-1.53,2.63,2.63,0,0,1,.44-1.48,3,3,0,0,1,1.33-1.06,5.41,5.41,0,0,1,2.18-.39,7,7,0,0,1,1.76.22,4.9,4.9,0,0,1,1.5.65l-.57,1.41a5.7,5.7,0,0,0-1.35-.57,5,5,0,0,0-1.36-.2,2.76,2.76,0,0,0-1.6.37,1.11,1.11,0,0,0-.52,1,.89.89,0,0,0,.3.69,2.06,2.06,0,0,0,.76.42c.31.1.73.22,1.26.35a13.51,13.51,0,0,1,1.79.52,3.08,3.08,0,0,1,1.2.84,2.18,2.18,0,0,1,.5,1.51,2.55,2.55,0,0,1-.45,1.47,2.92,2.92,0,0,1-1.33,1.05,5.5,5.5,0,0,1-2.19.39A7.69,7.69,0,0,1,125.44,491.62Z" transform="translate(-24.5 -6.16)" style="fill:#333"/><path d="M338.31,559.07a2.46,2.46,0,0,1,.47,1.55,2.25,2.25,0,0,1-1,2,4.91,4.91,0,0,1-2.85.69h-4.87v-9.8h4.59a4.5,4.5,0,0,1,2.67.68,2.17,2.17,0,0,1,.94,1.87,2.44,2.44,0,0,1-.34,1.29,2.25,2.25,0,0,1-.92.86A2.66,2.66,0,0,1,338.31,559.07Zm-6.41-4.16v2.7h2.57a2.58,2.58,0,0,0,1.46-.34,1.12,1.12,0,0,0,.52-1,1.14,1.14,0,0,0-.52-1,2.58,2.58,0,0,0-1.46-.34Zm5.05,5.53c0-.94-.7-1.42-2.11-1.42H331.9v2.83h2.94C336.25,561.85,337,561.38,337,560.44Z" transform="translate(-24.5 -6.16)" style="fill:#333"/><path d="M331.13,582.28A4.43,4.43,0,0,1,330,579v-5.53h1.82v5.46q0,2.88,2.49,2.88c1.66,0,2.48-1,2.48-2.88v-5.46h1.79V579a4.46,4.46,0,0,1-1.12,3.27,4.95,4.95,0,0,1-6.32,0Z" transform="translate(-24.5 -6.16)" style="fill:#333"/><path d="M330.92,603.1a4.59,4.59,0,0,1-1.67-.86l.63-1.41a4.82,4.82,0,0,0,1.48.78,5.37,5.37,0,0,0,1.75.3,3,3,0,0,0,1.63-.35,1.06,1.06,0,0,0,.54-.93.89.89,0,0,0-.3-.69,2.22,2.22,0,0,0-.76-.43c-.31-.1-.73-.22-1.26-.35a12.88,12.88,0,0,1-1.81-.53,2.83,2.83,0,0,1-1.19-.83,2.25,2.25,0,0,1-.5-1.53,2.63,2.63,0,0,1,.44-1.48,3,3,0,0,1,1.33-1.06,5.41,5.41,0,0,1,2.18-.39,7.51,7.51,0,0,1,1.76.22,4.9,4.9,0,0,1,1.5.65l-.57,1.41a5.7,5.7,0,0,0-1.35-.57,5,5,0,0,0-1.36-.2,2.76,2.76,0,0,0-1.6.37,1.11,1.11,0,0,0-.52,1,.89.89,0,0,0,.3.69,2.06,2.06,0,0,0,.76.42c.31.1.73.22,1.26.35a13.51,13.51,0,0,1,1.79.52,3.08,3.08,0,0,1,1.2.84,2.18,2.18,0,0,1,.5,1.51,2.55,2.55,0,0,1-.45,1.47,2.92,2.92,0,0,1-1.33,1,5.5,5.5,0,0,1-2.19.39A7.69,7.69,0,0,1,330.92,603.1Z" transform="translate(-24.5 -6.16)" style="fill:#333"/><path d="M339.15,518.25a2.5,2.5,0,0,1,.47,1.54,2.28,2.28,0,0,1-1,2,4.91,4.91,0,0,1-2.85.7h-4.88v-9.8h4.6a4.54,4.54,0,0,1,2.67.67,2.21,2.21,0,0,1,.94,1.87,2.39,2.39,0,0,1-.34,1.29,2.34,2.34,0,0,1-.92.87A2.6,2.6,0,0,1,339.15,518.25Zm-6.42-4.17v2.71h2.58a2.6,2.6,0,0,0,1.46-.35,1.25,1.25,0,0,0,0-2,2.6,2.6,0,0,0-1.46-.35Zm5.06,5.53c0-.94-.71-1.41-2.12-1.41h-2.94V521h2.94C337.08,521,337.79,520.56,337.79,519.61Z" transform="translate(-24.5 -6.16)" style="fill:#333"/><path d="M39,409.08h-4.9l-1,2.27H31.3l4.41-9.8H37.5l4.42,9.8H40Zm-.6-1.43-1.85-4.28-1.84,4.28Z" transform="translate(-24.5 -6.16)" style="fill:#333"/><path d="M32.68,416.55H34.5v8.26h5.13v1.54h-7Z" transform="translate(-24.5 -6.16)" style="fill:#333"/><path d="M33.73,440.35a4.46,4.46,0,0,1-1.13-3.27v-5.53h1.82V437q0,2.88,2.49,2.88c1.65,0,2.48-1,2.48-2.88v-5.46h1.79v5.53a4.46,4.46,0,0,1-1.13,3.27,4.23,4.23,0,0,1-3.15,1.14A4.27,4.27,0,0,1,33.73,440.35Z" transform="translate(-24.5 -6.16)" style="fill:#333"/><path d="M40.91,482.14a2.47,2.47,0,0,1,.48,1.55,2.26,2.26,0,0,1-1,2,4.87,4.87,0,0,1-2.86.7H32.68v-9.8h4.59a4.48,4.48,0,0,1,2.68.68,2.19,2.19,0,0,1,.94,1.87,2.47,2.47,0,0,1-.34,1.28,2.2,2.2,0,0,1-.92.87A2.59,2.59,0,0,1,40.91,482.14ZM34.5,478v2.7h2.58a2.6,2.6,0,0,0,1.46-.35,1.12,1.12,0,0,0,.51-1,1.15,1.15,0,0,0-.51-1,2.61,2.61,0,0,0-1.46-.34Zm5.06,5.53c0-.95-.71-1.42-2.12-1.42H34.5v2.83h2.94C38.85,484.92,39.56,484.45,39.56,483.51Z" transform="translate(-24.5 -6.16)" style="fill:#333"/><path d="M33.73,500.35a4.46,4.46,0,0,1-1.13-3.27v-5.53h1.82V497q0,2.88,2.49,2.88c1.65,0,2.48-1,2.48-2.88v-5.46h1.79v5.53a4.46,4.46,0,0,1-1.13,3.27,4.23,4.23,0,0,1-3.15,1.14A4.27,4.27,0,0,1,33.73,500.35Z" transform="translate(-24.5 -6.16)" style="fill:#333"/><path d="M33.53,516.17a4.51,4.51,0,0,1-1.67-.86l.63-1.41a5.09,5.09,0,0,0,1.47.77,5.18,5.18,0,0,0,1.76.31,3.06,3.06,0,0,0,1.63-.35,1.08,1.08,0,0,0,.54-.93.89.89,0,0,0-.3-.69,2.16,2.16,0,0,0-.76-.43c-.31-.1-.73-.22-1.26-.35a14.61,14.61,0,0,1-1.82-.53,3.09,3.09,0,0,1-1.19-.83,2.26,2.26,0,0,1-.49-1.54,2.54,2.54,0,0,1,.44-1.47,2.88,2.88,0,0,1,1.33-1.06,5.36,5.36,0,0,1,2.17-.39,7,7,0,0,1,1.77.22,4.9,4.9,0,0,1,1.5.65l-.58,1.41a5.81,5.81,0,0,0-1.34-.57,4.72,4.72,0,0,0-1.36-.2,2.85,2.85,0,0,0-1.6.36,1.14,1.14,0,0,0-.53,1,.89.89,0,0,0,.3.69,2.45,2.45,0,0,0,.77.42c.3.1.72.22,1.26.35a12.92,12.92,0,0,1,1.79.52,3.09,3.09,0,0,1,1.19.83,2.18,2.18,0,0,1,.5,1.52,2.62,2.62,0,0,1-.44,1.47,3.09,3.09,0,0,1-1.34,1.05,5.41,5.41,0,0,1-2.18.39A7.58,7.58,0,0,1,33.53,516.17Z" transform="translate(-24.5 -6.16)" style="fill:#333"/><path d="M207.1,391.27v-6.5l-3.22,5.38h-.81l-3.22-5.3v6.42H198.1v-9.8h1.5l3.89,6.49,3.82-6.49h1.5l0,9.8Z" transform="translate(-24.5 -6.16)" style="fill:#333"/><path d="M218.54,383.79v7.48h-1.66v-1a2.84,2.84,0,0,1-1.06.78,3.39,3.39,0,0,1-1.35.27,3.22,3.22,0,0,1-2.36-.83,3.26,3.26,0,0,1-.86-2.47v-4.27H213v4a2.2,2.2,0,0,0,.45,1.51,1.67,1.67,0,0,0,1.3.49,2,2,0,0,0,1.49-.58,2.3,2.3,0,0,0,.55-1.67v-3.78Z" transform="translate(-24.5 -6.16)" style="fill:#333"/><path d="M220.84,380.88h1.75v10.39h-1.75Z" transform="translate(-24.5 -6.16)" style="fill:#333"/><path d="M229.74,390.86a2,2,0,0,1-.75.38,3.48,3.48,0,0,1-.93.12,2.62,2.62,0,0,1-1.9-.64,2.47,2.47,0,0,1-.68-1.88v-3.59h-1.23v-1.4h1.23v-1.71h1.75v1.71h2v1.4h-2v3.55a1.19,1.19,0,0,0,.27.84,1,1,0,0,0,.77.28,1.51,1.51,0,0,0,1-.31Z" transform="translate(-24.5 -6.16)" style="fill:#333"/><path d="M231.27,382.26a1,1,0,0,1,0-1.5,1.22,1.22,0,0,1,1.59,0,.9.9,0,0,1,.32.72,1,1,0,0,1-.31.77,1.1,1.1,0,0,1-.81.32A1.11,1.11,0,0,1,231.27,382.26Zm-.09,1.53h1.75v7.48h-1.75Z" transform="translate(-24.5 -6.16)" style="fill:#333"/><path d="M241.33,384.18a3.5,3.5,0,0,1,1.35,1.35,4,4,0,0,1,.49,2,4.15,4.15,0,0,1-.49,2,3.5,3.5,0,0,1-1.35,1.35,4,4,0,0,1-2,.47,3,3,0,0,1-2.39-1V394h-1.75V383.79h1.66v1A2.78,2.78,0,0,1,238,384a3.53,3.53,0,0,1,1.4-.26A4,4,0,0,1,241.33,384.18Zm-.56,5a2.35,2.35,0,0,0,.62-1.69,2.37,2.37,0,0,0-.62-1.7,2.13,2.13,0,0,0-1.59-.64,2.3,2.3,0,0,0-1.14.29,2.1,2.1,0,0,0-.8.82,2.75,2.75,0,0,0,0,2.46,2.17,2.17,0,0,0,.8.82,2.3,2.3,0,0,0,1.14.29A2.13,2.13,0,0,0,240.77,389.22Z" transform="translate(-24.5 -6.16)" style="fill:#333"/><path d="M244.83,380.88h1.75v10.39h-1.75Z" transform="translate(-24.5 -6.16)" style="fill:#333"/><path d="M249,382.26a1,1,0,0,1,0-1.5,1.23,1.23,0,0,1,1.6,0,.93.93,0,0,1,.32.72,1.06,1.06,0,0,1-.32.77,1.08,1.08,0,0,1-.8.32A1.14,1.14,0,0,1,249,382.26Zm-.08,1.53h1.75v7.48h-1.75Z" transform="translate(-24.5 -6.16)" style="fill:#333"/><path d="M259.92,388.09h-5.86a2,2,0,0,0,.8,1.31,2.68,2.68,0,0,0,1.62.48,2.73,2.73,0,0,0,2-.81l.94,1.08a3.22,3.22,0,0,1-1.28.91,4.72,4.72,0,0,1-1.73.3,4.57,4.57,0,0,1-2.17-.49,3.47,3.47,0,0,1-1.45-1.36,3.84,3.84,0,0,1-.51-2,3.92,3.92,0,0,1,.49-2,3.6,3.6,0,0,1,1.38-1.36,4.26,4.26,0,0,1,3.95,0,3.37,3.37,0,0,1,1.34,1.36,4.11,4.11,0,0,1,.48,2C260,387.69,259.94,387.86,259.92,388.09Zm-5.17-2.49a2.13,2.13,0,0,0-.71,1.33h4.25a2.1,2.1,0,0,0-.69-1.32,2.06,2.06,0,0,0-1.43-.5A2.11,2.11,0,0,0,254.75,385.6Z" transform="translate(-24.5 -6.16)" style="fill:#333"/><path d="M266,383.71v1.66a2.35,2.35,0,0,0-2,.56,2.32,2.32,0,0,0-.58,1.71v3.63h-1.75v-7.48h1.67v1.09A2.92,2.92,0,0,1,266,383.71Z" transform="translate(-24.5 -6.16)" style="fill:#333"/></g></svg>